<svg xmlns="http://www.w3.org/2000/svg" xmlns:xlink="http://www.w3.org/1999/xlink" viewBox="0 0 4680 3120"><defs><style>.cls-1{fill:none;}.cls-2{fill:#291493;}.cls-3,.cls-5{fill:#fff;}.cls-3{opacity:0;}.cls-4{fill:#cdd5e0;}.cls-6{fill:#b0bdcc;}.cls-7{fill:#91a2b7;}.cls-8{fill:#ffca61;}.cls-9{fill:#fec337;}.cls-10{fill:#333;}.cls-11{fill:#1e1e1e;}.cls-12{fill:#d3d3d3;}.cls-13{fill:#f27405;}.cls-14{fill:#c6d1e5;}.cls-15{opacity:0.7;}.cls-16{fill:#8f9fb7;}.cls-17{fill:#d81a1a;}.cls-18{opacity:0.6;}.cls-19{fill:#2848a3;}.cls-20{fill:#6184e5;}.cls-21{fill:#3c5cc9;}.cls-22{fill:#1c3b82;}.cls-23{fill:#feb8c0;}.cls-24{clip-path:url(#clip-path);}.cls-25{fill:#f98c8f;}.cls-26{fill:#261e87;}.cls-27{clip-path:url(#clip-path-2);}.cls-28{fill:#75a1dd;}.cls-29{clip-path:url(#clip-path-3);}.cls-30{opacity:0.8;}.cls-31{fill:#3c6799;}.cls-32{fill:#0d0c49;}.cls-33{fill:#3b2bad;}.cls-34{opacity:0.5;}.cls-35{clip-path:url(#clip-path-4);}.cls-36{fill:#0f2e51;}.cls-37{clip-path:url(#clip-path-5);}.cls-38{clip-path:url(#clip-path-6);}.cls-39{fill:#ef9152;}.cls-40{fill:#6b2e00;}.cls-41{fill:#f7727c;}.cls-42{fill:#cc424f;}.cls-43{opacity:0.3;}.cls-44{fill:#547eb2;}.cls-45{fill:#c6c6c6;}.cls-46{fill:#e4e7ea;}.cls-47{fill:#180070;}.cls-48{fill:#608ec6;}.cls-49{clip-path:url(#clip-path-7);}.cls-50{fill:#e2e2e2;}.cls-51{fill:#8e2332;}.cls-52{clip-path:url(#clip-path-8);}.cls-53{fill:#5e1122;}.cls-54{clip-path:url(#clip-path-9);}.cls-55{clip-path:url(#clip-path-10);}.cls-56{fill:#f4a300;}.cls-57{fill:#d10055;}.cls-58{fill:#f61d6b;}.cls-59{opacity:0.2;}.cls-60{fill:#8181a5;}.cls-61{fill:#bac7cc;}.cls-62{clip-path:url(#clip-path-11);}.cls-63{clip-path:url(#clip-path-12);}.cls-64{fill:#ef9f00;}.cls-65{fill:#434b54;}.cls-66{fill:#d8d8d8;}.cls-67{fill:#507eb5;}.cls-68{fill:#e0e0e0;}.cls-69{fill:#0c0047;}.cls-70{clip-path:url(#clip-path-13);}.cls-71{clip-path:url(#clip-path-14);}.cls-72{clip-path:url(#clip-path-15);}.cls-73{fill:#231c7f;}.cls-74{clip-path:url(#clip-path-16);}.cls-75{opacity:0.4;}.cls-76{clip-path:url(#clip-path-17);}.cls-77{fill:#eaeaea;}</style><clipPath id="clip-path"><path class="cls-1" d="M2714.83,1836.94s23.06,7.51,41,9,30.74,27,37.14,51.06-9,33-21.77,33,0-13.52,5.12-18,.22,18-21.66,18-19.37-2.49-21.27-8.76S2744.3,1906,2744.3,1906s-16.66,15.53-24.34,15.27-16.42-14.91-16.42-14.91,11.76,9.16,0,14.91S2630.29,1867,2714.83,1836.94Z"/></clipPath><clipPath id="clip-path-2"><path class="cls-1" d="M2275.48,2560.6s22.87,44.84,100,31.73,24.86,80.35-120.43,100.85-88.95,12.86-102.09,5.18-16.81-111.21-16.81-111.21Z"/></clipPath><clipPath id="clip-path-3"><path class="cls-1" d="M2154,1692.61s-64.23,99.46-48.62,197.91S2110.6,2602,2110.6,2602s113.49,15.1,202.12-18.46c1.91-88.63-44-864-44-864Z"/></clipPath><clipPath id="clip-path-4"><path class="cls-1" d="M2236.14,1710.48s-64.28,126.28-44.33,227.16,101.61,234.06,101.61,234.06l-175.71,254.8s111.3-13.39,160.3,110.73c113.43-172.89,221.89-339.3,219.68-383.54s-106.25-382.63-106.25-382.63Z"/></clipPath><clipPath id="clip-path-5"><path class="cls-2" d="M2385.2,1168c1.94-.5,2.71-24.94,34.05-27.16s19.7,7.21,19.7,7.21,44.19-14.41,67.25,13.3,31.38,57.62,48,72-19.4,45.92-31,47.07-131.33,62.73-131.33,62.73l-21.61-21.69s1.11,4.43-10.53,0S2265.51,1198.47,2385.2,1168Z"/></clipPath><clipPath id="clip-path-6"><path class="cls-1" d="M2536.48,1248.9c-10.53,13.85-37.13,16.62-23.83,0-29.37,26-55.41,21-46.55,2.77-6.65,7.2-27.7,17.18-27.7,17.18l-3.17,5.47c-9.52-10.83-24.59-14.1-35.75-7-12.53,8-15.4,25.9-6.39,40.08a32.77,32.77,0,0,0,15.46,13l-.63,1.09s-16.62,1.66-18.29,3.32-10,4.43-19.39-3.32c-2.22,12.19-17.18,38.79-17.18,38.79l92,40.45s-7.76-27.16,0-36.58c54.85,26,78.68-39.34,78.68-39.34s8.33-3.32,3.88-15C2537.58,1283.81,2536.48,1248.9,2536.48,1248.9Z"/></clipPath><clipPath id="clip-path-7"><polygon class="cls-1" points="1502.14 1362.79 1404.22 1395.08 1470.7 1790.94 1667.78 1775.32 1644.86 1400.29 1502.14 1362.79"/></clipPath><clipPath id="clip-path-8"><path class="cls-1" d="M1461.06,1182.78s-9.83-20.58,29.82-36.4,51.91,6.5,96.77-3.73,90,76.87,23.8,112.09a1164.48,1164.48,0,0,0-115.55,70.37s-16.15,19.34-30.66,13.83.67-30.79.67-30.79S1353.61,1230.52,1461.06,1182.78Z"/></clipPath><clipPath id="clip-path-9"><path class="cls-1" d="M1604.74,1214c-6.84,23.68-54.77,26.19-67.67,22.94s-14.17,28.1-14.57,38.74c-.19,5-7.06,5.73-14.3,5.11a35.55,35.55,0,0,0-13.57-8c-16.69-5.44-34,1.86-38.75,16.3s5,30.56,21.71,36a35.83,35.83,0,0,0,6.22,1.44l-.11.68-3,46.86s87.6,80.67,84.23,3.43c0,0-6.33-17.53-8.22-29C1683.61,1370.48,1604.74,1214,1604.74,1214Z"/></clipPath><clipPath id="clip-path-10"><path class="cls-1" d="M1748,1926.38h-41.69l-8.31-87.51h-63.57s-17.69-227.11-20.34-300-27.76-153.94-27.76-153.94,86.67,3.93,101.23,72.69S1748,1926.38,1748,1926.38Z"/></clipPath><clipPath id="clip-path-11"><path class="cls-1" d="M1445.73,1917s17.47,27.09,21.35,37.51,4.85,28.12,4.85,28.12a107.06,107.06,0,0,1-13.1,16.67c-7.27,7.29-7.8,27.09-24,26s-11.38-15.62-21.08-11.46-23.29,4.17-30.08-5.2-15.52-2.09-16.49-13.55,0-68.74,0-68.74Z"/></clipPath><clipPath id="clip-path-12"><path class="cls-1" d="M1461.48,1376.2s47.85,58.47,68.21,223.06,24.54,238.56,24.54,238.56l-99.53,14.59,9.94,79.17-108.34,13.54s-54.17-129.18-51-230.22S1336.5,1443,1361.51,1419,1461.48,1376.2,1461.48,1376.2Z"/></clipPath><clipPath id="clip-path-13"><path class="cls-1" d="M957.41,2758.53c-66.64,7.85-190.12-17.64-188.15-31.34.38-2.73-1.27-21.84-4.12-50.66-11.52-115.74-42.92-388.39-42.92-388.39l190.1-13.7S867.25,2650.75,890.77,2686c6,9,17.49,17.52,30.28,25.46C958.65,2734.86,1007.13,2752.71,957.41,2758.53Z"/></clipPath><clipPath id="clip-path-14"><path class="cls-1" d="M710.59,1775.37,643.36,2394.7s65.33-26.61,125.78,20.47,97.3-43,193.49-43,178.19,7.32,67.67,42.82c96.19-17.72,42.84-38.73,42.84-71.47s-92.81-519.92-113.28-585.41C910,1730.94,710.59,1775.37,710.59,1775.37Z"/></clipPath><clipPath id="clip-path-15"><path class="cls-1" d="M755.91,1195.34s29.29-50.38,101.93-31.63,80.85,61.4,82,94-5.3,54.56,1.37,95.69c10.15,62.62-1.45,73.78-60.91,80.81s-147.84-.62-147.84-.62S709,1427.34,709,1398.63c-8.2,24,4.69,34.93,4.69,34.93s-56.24,7.38-56.24-28.72c0-47.51,37.49-49.45,50.38-69.13S672.72,1210.57,755.91,1195.34Z"/></clipPath><clipPath id="clip-path-16"><path class="cls-1" d="M929.16,1311.39s3.36-4-5.37-14.78c0-43.67-21.5-69.2-21.5-69.2-13.44,20.83-39.29,15.91-41.9,24.57a123.45,123.45,0,0,1-48.38,66.4l-.9.62c-.57-.6-1.14-1.2-1.75-1.77-13.59-12.64-33.25-13.58-43.92-2.11s-8.29,31,5.29,43.64a36.35,36.35,0,0,0,25.31,10.1l-3.26,55.4h86.67a324.07,324.07,0,0,1-8.74-41.65C946,1390.67,929.16,1311.39,929.16,1311.39Z"/></clipPath><clipPath id="clip-path-17"><path class="cls-1" d="M890.1,1418.9s-51.84,11.91-65.39,159.07-100.64,399.45-9,414.46,210.23,42,211.74-9-18.06-231.15-18.06-231.15-82.82,58.46-135-7.61-7.2-302.92,24.87-308.39C900.89,1418.9,890.1,1418.9,890.1,1418.9Z"/></clipPath></defs><title>03</title><g id="_03" data-name="03"><rect id="_03-2" data-name="03" class="cls-3" width="4680" height="3120"/><ellipse class="cls-4" cx="616.42" cy="2725.59" rx="340.99" ry="19.09"/><ellipse class="cls-4" cx="1549.42" cy="2725.59" rx="340.99" ry="19.09"/><ellipse class="cls-4" cx="2052.98" cy="2725.59" rx="340.99" ry="19.09"/><path class="cls-5" d="M3955.83,1918V609.46h-32.92v-19.7h-3.25v19.7H3895V709l-122.33-.55V770H3669V390h-96.83V361.57h-3.67V390H3463.59V361.57h-3.67V390h-74.11V361.57h-3.67V390h-20.39V797H3267.9V577h-195V409.35c-1.42-.78-2.83-1.54-4.24-2.33h-27.3v-.08H2882.5V407h-.13v29.35h.13v20.2h-.13v29.35h.13v20.25h-.13v29.36h.13v.1l-16.84-.1V382h-23.91V360h-2.84v22h-131V360h-2.84v22h-17.69v19.45h-.1v29.35h.1v25.8h-.1v29.35h.1v20.25h-.1v29.36h.1v18.74h-.1v29.36h.1v18.75h-.1v29.35h.1v17.65h-.1V668h.1v2H2628V523.16h-8.82v146.9h-89.72V591.69h-5.66v78.37h-37.44v168h-75.07v42.31h-80.94V807.49H2184.74v-198H2162V589.76h-3.25v19.72h-18.87v0h-94.46v-19.7h-3.25v19.7H2017.5V709l-122.33-.55v61.44h-103.7V390h-27.12V361.57h-3.67V390h-66V361.57H1691V390H1586V361.57h-3.66V390h-74.11V361.57h-3.66V390h-20.42V797h-93.83V577H1274.21V409.35c-1.42-.78-2.84-1.54-4.24-2.33h-27.32v-.08H1083.76V407h-.14v29.35h.14v20.2h-.14v29.35h.14v20.25h-.14v29.36h.14v.1l-16.83-.1V382H1043V360h-2.82v22h-131V360h-2.84v22H888.63v19.45h-.08v29.35h.08v25.8h-.08v29.35h.08v20.25h-.08v29.36h.08v18.74h-.08v29.36h.08v18.75h-.08v29.35h.08v17.65h-.08V668h.08v2H829.28V523.16h-8.79v146.9H730.75V591.69h-5.67v78.37h-34.2V1918Z"/><path class="cls-4" d="M3959.83,1922H686.88V666.06h34.2V587.69h13.67v78.37h81.74V519.16h16.8v146.9h51.26V645.38h.08v-9.65l-.08-4V598.38h.08V587.63l-.08-4V550.27h.08V539.53l-.08-4V502.17h.08V489.92l-.08-4V452.57h.08v-17.8l-.08-4V397.42h.08V378h17.69V356h10.84v22h123V356H1047v22h23.92V531.55l8.69.06V502.17h.14V489.92h-.14V452.57h.14v-12.2h-.14V403h.14l4-.08h162.89V403H1271l.91.51c.81.46,1.63.91,2.45,1.36l1.77,1,2.06,1.15V573h116.15V793h85.83V386h20.41V357.57h11.67V386h66.11V357.57H1590V386H1687V357.57h11.67V386h58V357.57h11.67V386h27.12v379.9h95.7V704.47l122.33.55V605.46h24.62v-19.7h11.25v19.7h94.46v0h10.87V585.76H2166v19.72h22.78v198h145.64v72.87h72.94V834.05h75.07v-168h37.44V587.69h13.66v78.37h81.72V519.16H2632v146.9h51.25V645.38h.1v-9.65l-.1-4V598.38h.1V587.63l-.1-4V550.27h.1V539.53l-.1-4V502.17h.1V489.92l-.1-4V452.57h.1v-17.8l-.1-4V397.42h.1V378h17.69V356h10.84v22h123V356h10.84v22h23.91V531.55l8.71.06V502.17h.13V489.92h-.13V452.57h.13v-12.2h-.13V403h.13l4-.08h162.9V403h24.33l7.21,4V573h195V793h85.85V386h20.39V357.57h11.67V386h66.11V357.57h11.67V386h96.92V357.57h11.67V386H3673V766h95.7V704.47L3891,705V605.46h24.62v-19.7h11.25v19.7h32.92Zm-3264.95-8h3257V613.46H3899v99.59l-122.33-.54V774H3665V394H3365.75V801H3263.9V581h-195V411.72l-1.27-.7H3037.4v-.08h-151v21.43h.13v28.2h-.13v21.35h.13v28.25h-.13v21.36h.13v8.13l-24.84-.16V386H2691.38v19.45h-.1v21.35l.1,4v29.8h-.1v21.35l.1,4v24.25h-.1v21.36l.1,4v22.74h-.1v21.36l.1,4v22.75h-.1v21.35l.1,4v21.65h-.1V664l.1,4v6H2624V527.16h-.82v146.9H2490.39v168h-75.07v42.31h-88.94V811.49H2180.74v-198l-159.24,0v99.59l-122.33-.54v61.42h-111.7V394H1488.19V801H1386.36V581H1270.21V411.72l-1.28-.7h-30.28v-.08h-151v21.43h.14v28.2h-.14v21.35h.14v28.25h-.14v21.36h.14v8.13l-24.83-.16V386H892.63v19.45h-.08v21.35l.08,4v29.8h-.08v21.35l.08,4v24.25h-.08v21.36l.08,4v22.74h-.08v21.36l.08,4v22.75h-.08v21.35l.08,4v21.65h-.08V664l.08,6v4H825.29V527.16h-.8v146.9H694.88Z"/><rect class="cls-6" x="2688.15" y="402.74" width="109.38" height="39.11"/><rect class="cls-6" x="2688.15" y="462.94" width="109.38" height="39.11"/><rect class="cls-6" x="2688.15" y="524.38" width="109.38" height="39.11"/><rect class="cls-6" x="2688.15" y="586.82" width="109.38" height="39.11"/><rect class="cls-6" x="2688.15" y="647.05" width="109.38" height="39.11"/><rect class="cls-6" x="2688.15" y="713.35" width="109.38" height="39.11"/><rect class="cls-6" x="2688.15" y="773.55" width="109.38" height="39.11"/><rect class="cls-6" x="2688.15" y="834.99" width="109.38" height="39.11"/><rect class="cls-6" x="2688.15" y="897.43" width="109.38" height="39.11"/><rect class="cls-6" x="2688.15" y="957.66" width="109.38" height="39.11"/><rect class="cls-6" x="2882.72" y="428.38" width="117.22" height="39.11"/><rect class="cls-6" x="2882.72" y="488.58" width="117.22" height="39.11"/><rect class="cls-6" x="2882.72" y="550.03" width="117.22" height="39.11"/><rect class="cls-6" x="2882.72" y="612.46" width="117.22" height="39.11"/><rect class="cls-6" x="2882.72" y="672.7" width="117.22" height="39.11"/><rect class="cls-6" x="2882.72" y="735.5" width="117.22" height="39.11"/><rect class="cls-6" x="2882.72" y="795.69" width="117.22" height="39.11"/><rect class="cls-6" x="2882.72" y="857.15" width="117.22" height="39.11"/><rect class="cls-6" x="2882.72" y="919.58" width="117.22" height="39.11"/><rect class="cls-6" x="2882.72" y="979.82" width="117.22" height="39.11"/><rect class="cls-6" x="2882.72" y="1048.9" width="117.22" height="39.11"/><rect class="cls-6" x="2882.72" y="1109.1" width="117.22" height="39.11"/><rect class="cls-6" x="2882.72" y="1170.55" width="117.22" height="39.11"/><rect class="cls-6" x="2882.72" y="1232.98" width="117.22" height="39.11"/><rect class="cls-6" x="2882.72" y="1293.21" width="117.22" height="39.11"/><rect class="cls-6" x="3456.02" y="410.8" width="213.44" height="64.4"/><rect class="cls-6" x="3456.02" y="509.92" width="213.44" height="64.4"/><rect class="cls-6" x="3456.02" y="611.11" width="213.44" height="64.4"/><rect class="cls-6" x="3456.02" y="713.9" width="213.44" height="64.4"/><rect class="cls-6" x="3456.02" y="813.09" width="213.44" height="64.4"/><rect class="cls-6" x="1557.52" y="410.8" width="234.44" height="64.4"/><rect class="cls-6" x="1557.52" y="509.92" width="234.44" height="64.4"/><rect class="cls-6" x="1557.52" y="611.11" width="234.44" height="64.4"/><rect class="cls-6" x="1557.52" y="713.9" width="234.44" height="64.4"/><rect class="cls-6" x="1557.52" y="813.09" width="234.44" height="64.4"/><rect class="cls-6" x="888" y="402.74" width="117.22" height="39.11"/><rect class="cls-6" x="888" y="462.94" width="117.22" height="39.11"/><rect class="cls-6" x="888" y="524.38" width="117.22" height="39.11"/><rect class="cls-6" x="888" y="586.82" width="117.22" height="39.11"/><rect class="cls-6" x="888" y="647.05" width="117.22" height="39.11"/><rect class="cls-6" x="888" y="713.35" width="117.22" height="39.11"/><rect class="cls-6" x="888" y="773.55" width="117.22" height="39.11"/><rect class="cls-6" x="888" y="834.99" width="117.22" height="39.11"/><rect class="cls-6" x="888" y="897.43" width="117.22" height="39.11"/><rect class="cls-6" x="888" y="957.66" width="117.22" height="39.11"/><rect class="cls-6" x="1086.49" y="428.38" width="133.23" height="39.11"/><rect class="cls-6" x="1086.49" y="488.58" width="133.23" height="39.11"/><rect class="cls-6" x="1086.49" y="550.03" width="133.23" height="39.11"/><rect class="cls-6" x="1086.49" y="612.46" width="133.23" height="39.11"/><rect class="cls-6" x="1086.49" y="672.7" width="133.23" height="39.11"/><rect class="cls-6" x="1086.49" y="735.5" width="133.23" height="39.11"/><rect class="cls-6" x="1086.49" y="795.69" width="133.23" height="39.11"/><rect class="cls-6" x="1086.49" y="857.15" width="133.23" height="39.11"/><rect class="cls-6" x="1086.49" y="919.58" width="133.23" height="39.11"/><rect class="cls-6" x="1086.49" y="979.82" width="133.23" height="39.11"/><rect class="cls-6" x="1086.49" y="1048.9" width="133.23" height="39.11"/><rect class="cls-6" x="1086.49" y="1109.1" width="133.23" height="39.11"/><rect class="cls-6" x="1086.49" y="1170.55" width="133.23" height="39.11"/><rect class="cls-6" x="1086.49" y="1232.98" width="133.23" height="39.11"/><rect class="cls-6" x="1086.49" y="1293.21" width="133.23" height="39.11"/><rect class="cls-5" x="1495.21" y="935.19" width="400.08" height="982.76"/><path class="cls-6" d="M1899.29,1922H1491.21V931.19h408.08Zm-400.08-8h392.08V939.19H1499.21Z"/><rect class="cls-5" x="2228.03" y="1194.73" width="247.58" height="723.22"/><path class="cls-6" d="M2479.6,1922H2224V1190.73H2479.6ZM2232,1914H2471.6V1198.73H2232Z"/><rect class="cls-6" x="3247.66" y="923.46" width="336.76" height="994.49"/><path class="cls-7" d="M4303.14,1921.92H343.56a4,4,0,1,1,0-8H4303.14a4,4,0,0,1,0,8Z"/><path class="cls-7" d="M4303.14,1977.3H343.56a4,4,0,0,1,0-8H4303.14a4,4,0,0,1,0,8Z"/><path class="cls-8" d="M2560.93,1443.3l28.94-113.55a33.55,33.55,0,0,1,32.51-25.26h254.49a33.55,33.55,0,0,1,32.63,25.75l27,113.06Z"/><rect class="cls-5" x="2531.35" y="1407.79" width="439.39" height="188.72" rx="9.02"/><polygon class="cls-9" points="3952.36 2346.5 3357.14 2346.5 2478.85 2177.67 2175.64 2342.02 1634.12 2319.65 1558.14 2177.67 1857.89 1858.68 3834.13 1944.94 4097.81 2198.81 3952.36 2346.5 3952.36 2346.5"/><circle class="cls-10" cx="3647.83" cy="2290.4" r="241.13" transform="translate(-551.14 3250.25) rotate(-45)"/><path class="cls-11" d="M3557.14,2068.45c-70.1,42.17-131.93,111.77-135.26,199.48-4.56,120.1,49.21,256.31,252.36,250.83,32.07-.86,69.73-8.71,97.72-20.08-36.26,21.82-88.8,32.25-134.21,32.25-133.17,0-231.05-105.83-231.05-239C3406.7,2190.83,3468.92,2104.29,3557.14,2068.45Z"/><circle class="cls-5" cx="3647.83" cy="2290.4" r="147.07"/><circle class="cls-12" cx="3647.83" cy="2290.4" r="135.1" transform="translate(-465.67 1013.01) rotate(-14.87)"/><circle class="cls-10" cx="1905.91" cy="2290.4" r="241.13" transform="translate(-1061.33 2018.53) rotate(-45)"/><path class="cls-11" d="M1815.22,2068.45c-70.1,42.17-131.92,111.77-135.26,199.48-4.55,120.1,49.22,256.31,252.36,250.83,32.07-.86,69.73-8.71,97.72-20.08-36.26,21.82-88.8,32.25-134.21,32.25-133.17,0-231-105.83-231-239C1664.78,2190.83,1727,2104.29,1815.22,2068.45Z"/><circle class="cls-5" cx="1905.91" cy="2290.4" r="147.07"/><path class="cls-12" d="M1770.81,2290.4a135.1,135.1,0,1,0,135.1-135.1A135.11,135.11,0,0,0,1770.81,2290.4Z"/><path class="cls-13" d="M1526.72,1981.18s85-170.06,228.24-286.42,452-246.15,966.68-250.62,492.29,53.7,675.78,165.59c90.18,55,174.54,138.73,174.54,138.73s349.08-9,604.17,138.74c81.43,47.14,134.26,161.11,134.26,161.11s61.37,36.31,71.61,138.74c15.36,153.61-39.58,161.39-129.17,160.39-97.74-1.09-335.9,3-335.9,3s6.5-81.79-23.87-159.14-96.7-153.06-231.59-165.33c-147.69-13.42-224.92,84.28-251.77,151.41-36.8,92-27.85,169.08-27.85,169.08l-1206.21-2.74s2.77-106.67-25.08-174.3c-33.61-81.63-121.51-140.72-246.65-147.19-115.37-6-214.35,71.6-238.7,139.24-35.8,99.45-19.89,165.1-19.89,165.1l-105.18-14.17-89.51-111.89V2039.36Z"/><path class="cls-14" d="M3469.37,1764.15l-600.53-21.49-740.16-26.47s31.54-36.77,119.07-92.48,276.47-146.72,602.71-145.23c130.86.61,211.77,9,290.4,38.9,15.9,6,31.68,12.91,47.74,20.8C3358,1621.3,3469.37,1764.15,3469.37,1764.15Z"/><g class="cls-15"><path class="cls-16" d="M3469.37,1764.15l-600.53-21.49c3.22-1.1,6.4-2.24,9.61-3.4,57.32-20.63,113.53-46.55,160.68-85.06,44.53-36.36,79.2-84,101.73-136.82,15.9,6,31.68,12.91,47.74,20.8C3358,1621.3,3469.37,1764.15,3469.37,1764.15Z"/></g><path class="cls-10" d="M2125.2,1716.68l1348.15,47.46s-111.39-142.83-280.77-226c-95.71-47-180.86-59-338.15-59.69-326.22-1.49-521.61,87.76-609.13,143.46S2125.2,1716.68,2125.2,1716.68Zm71.12-16.37s28.86-32.16,109-80.87,253.1-128.33,551.73-127c144,.63,221.93,11.12,309.55,52.2,155.05,72.71,257,197.64,257,197.64Z"/><path class="cls-10" d="M4377.9,2146.64s-228.17-9.57-256.71,4.1c-24.64,11.81-30.67,120.06,5.14,133.49s216.14,6.16,216.14,6.16,58.53-5.65,61.91-73.68C4407.24,2159,4377.9,2146.64,4377.9,2146.64Z"/><path class="cls-17" d="M1592.2,2123.18s-130.59-6.4-146.92,2.76c-14.11,7.9-17.55,80.38,2.94,89.37s123.71,4.12,123.71,4.12,33.5-3.78,35.43-49.33C1609,2131.48,1592.2,2123.18,1592.2,2123.18Z"/><path class="cls-5" d="M4050.81,1920.61c47,5.48,86.7,36.66,113.85,71.22,32.83,41.78,52.5,93.63,4.68,92.55-45.75-1.05-66.56-32.67-106.21-70.82C4023.25,1975.2,3997.26,1914.37,4050.81,1920.61Z"/><g class="cls-18"><polygon class="cls-9" points="3551.04 1837.52 1860.49 1750.99 1741.79 1825.59 3663.31 1891.23 3551.04 1837.52"/></g><polygon class="cls-9" points="3302.84 2305.97 2317.38 2305.97 2314.67 2273.15 3308.25 2279.11 3302.84 2305.97"/><g class="cls-18"><path class="cls-9" d="M4068.1,2305s-25.82-164.4-72.83-232.58c-100.22-145.36-340.91-119.5-340.91-119.5l11.94,21.88s94.27,3.76,179,43.77c70.2,33.13,99.78,83,121.48,137.25s29.43,111.64,29.43,111.64Z"/></g><g class="cls-18"><path class="cls-9" d="M2300.75,2227.66s-36.34-162.4-87.63-227.42c-109.36-138.62-347.88-97.35-347.88-97.35l13.31,21.07s94.32-2.3,181.47,32.17c72.18,28.55,104.91,76.43,130,129.16s36.55,109.53,36.55,109.53Z"/></g><path class="cls-9" d="M1598.58,1861.39s41.92,1,51.52,1,24,8,24,17.9-7.2,73.6-9.6,81.56-16.8,15.91-33.59,15.91-104.19,1.77-104.19,1.77Z"/><path class="cls-9" d="M3329.14,2312v-3c0-1.17.54-117.94,45.82-193.91,12.4-20.8,34.32-40.64,55.51-59.83,31.18-28.24,63.42-57.44,68.7-91.92,28.39-185.26-41.61-213.6-44.6-214.71l-2.08,5.59,1-2.8-1.06,2.79c.69.27,68.35,28.44,40.8,208.23-5,32.38-36.4,60.85-66.81,88.39-21.51,19.49-43.77,39.64-56.62,61.21-42,70.48-46.21,175-46.63,194L2567.08,2300c-7.1-13.12-58-109.69-85.4-230.42-28.08-123.54-36.62-190.9-9.26-239.56,26.41-47,73.8-103.4,74.28-104l-4.57-3.84c-.47.57-48.23,57.45-74.91,104.89-28.32,50.36-19.78,118.74,8.64,243.81,29.59,130.19,86.27,232.5,86.84,233.52l.84,1.51,1.74,0Z"/><path class="cls-10" d="M2692.11,1495.89s-46,53.3-73.1,97c-46.25,74.59-58.18,129.79-58.18,129.79H2492.2s37.3-65.64,77.58-131.28,92.49-95.48,92.49-95.48Z"/><path class="cls-10" d="M4021.27,1927l10.93-4.55s-24.59,20.94,50.08,102C4147,2094.63,4197,2072.7,4197,2072.7l-1.82,8.2s-5.46,16.39-51.9,6.37S4044,2009,4022.18,1969.8,4021.27,1927,4021.27,1927Z"/><circle class="cls-9" cx="2569.28" cy="1941.95" r="68.63"/><path class="cls-13" d="M2483.25,1938a14.35,14.35,0,0,0,14.27,14.42H2642a14.36,14.36,0,0,0,14.28-14.42h0a14.36,14.36,0,0,0-14.28-14.43H2497.52a14.35,14.35,0,0,0-14.27,14.43Z"/><path class="cls-9" d="M3425.71,1769.47c0,18.44-26.36,55.32-81.69,55.32s-139.66-2.63-152.84-47.43c-1.78-6.06,2.79-14.29,11.35-23.09,23.51-24.23,77-52.61,109.87-50.67,34.06,2,81.85,28.4,102.78,49C3421.77,1759.14,3425.71,1765.07,3425.71,1769.47Z"/><path class="cls-13" d="M3415.18,1752.63c-12.37,15.65-35.88,30.66-71.16,30.66-46.52,0-113.47-1.86-141.49-29,23.51-24.23,77-52.61,109.87-50.67C3346.46,1705.59,3394.25,1732,3415.18,1752.63Z"/><rect class="cls-5" x="343.56" y="2476.1" width="3959.58" height="61.6"/><path class="cls-7" d="M4307.14,2541.69H339.56V2472.1H4307.14Zm-3959.58-8H4299.14V2480.1H347.56Z"/><path class="cls-19" d="M4189.37,819.12H4172.3l.15-1.34,5.15-45.53a2.91,2.91,0,0,1,2.89-2.57l.54,0a4.62,4.62,0,0,1,2.53,1.16,4.58,4.58,0,0,1,1.47,2.93Z"/><path class="cls-20" d="M4174,808.79l-.61,0,4.26-36.56a2.91,2.91,0,0,1,2.89-2.57l.54,0a6.14,6.14,0,0,1,.45.43,4.51,4.51,0,0,1,1.21,3.05l.25,26.28A9.24,9.24,0,0,1,4174,808.79Z"/><rect class="cls-21" x="4167.33" y="1021.7" width="32.91" height="1453.27"/><rect class="cls-22" x="4167.33" y="1021.7" width="15.2" height="1453.27"/><rect class="cls-21" x="4131.37" y="2243.06" width="104.83" height="384.52"/><rect class="cls-19" x="4131.37" y="2243.06" width="62.48" height="384.52"/><path class="cls-21" d="M4241.07,841.05c0,18-27,32.51-60.24,32.51-2.54,0-5-.08-7.49-.25-29.73-2-52.75-15.68-52.75-32.26s23-30.26,52.75-32.24c2.46-.18,4.95-.26,7.49-.26C4214.1,808.55,4241.07,823.1,4241.07,841.05Z"/><path class="cls-19" d="M4209.89,841.05c0,14.47-15.06,26.9-36.55,32.26-29.73-2-52.75-15.68-52.75-32.26s23-30.26,52.75-32.24C4194.83,814.15,4209.89,826.58,4209.89,841.05Z"/><polygon class="cls-19" points="4236.07 1050.36 4131.25 1050.36 4094.29 872.4 4267.37 872.4 4236.07 1050.36"/><rect class="cls-21" x="4084.94" y="859" width="191.78" height="17.07"/><rect class="cls-19" x="4084.94" y="859" width="120.56" height="17.07"/><path class="cls-5" d="M4148.54,2243.06h67l-9.8-29.73a6.43,6.43,0,0,0-6.11-4.42h-31.38a8.38,8.38,0,0,0-7.76,5.2Z"/><polygon class="cls-20" points="4106.68 881.08 4254.5 881.08 4225.63 1041.03 4140.75 1041.03 4106.68 881.08"/><polygon class="cls-21" points="4264.47 859 4097.19 859 4110.89 839.49 4251.47 839.49 4264.47 859"/><polygon class="cls-22" points="4223.27 859 4097.19 859 4110.89 839.49 4210.27 839.49 4223.27 859"/><path class="cls-23" d="M2714.83,1836.94s23.06,7.51,41,9,30.74,27,37.14,51.06-9,33-21.77,33,0-13.52,5.12-18,.22,18-21.66,18-19.37-2.49-21.27-8.76S2744.3,1906,2744.3,1906s-16.66,15.53-24.34,15.27-16.42-14.91-16.42-14.91,11.76,9.16,0,14.91S2630.29,1867,2714.83,1836.94Z"/><g class="cls-24"><path class="cls-25" d="M2715.09,1898.15a80,80,0,0,0,3.43-7.33A78.78,78.78,0,0,0,2715.09,1898.15Z"/><path class="cls-25" d="M2778.88,1929.82c-4.09,2.21-9.89,2.72-12.8-.9-2.69-3.36-1.5-8.26-.18-12.35l3.93-12.21c-2.29,3.57-15.78,19.31-15.78,19.31a17.27,17.27,0,0,1-6.31,4.06c-3.18,1-7.14.4-9.09-2.32-1.71-2.39-1.47-5.65-.83-8.52a39.11,39.11,0,0,1,7.18-15.22c-5.7,6.78-11.5,13.46-17.47,20-2.43,2.66-5.31,5.5-8.91,5.51s-6.78-3.17-7.8-6.71-.39-7.32.49-10.9a80.39,80.39,0,0,1,3.78-11.42c-2.56,4.92-4.05,11.59-9.09,13.89-8.46,3.87-20.11-.54-22.3-3l11.22,28.29c5.46-1.77,11.49.18,16.36,3.22s9,7.14,13.8,10.29a42.68,42.68,0,0,0,65.48-28.53C2786.29,1924.08,2783,1927.6,2778.88,1929.82Z"/></g><path class="cls-26" d="M2275.48,2560.6s22.87,44.84,100,31.73,24.86,80.35-120.43,100.85-88.95,12.86-102.09,5.18-16.81-111.21-16.81-111.21Z"/><g class="cls-27"><path class="cls-5" d="M2129.69,2694.65a497.58,497.58,0,0,0,197-43.62c16.37-7.37,32.84-16,44.15-30s16.26-34.45,7.61-50.19c13.31,5.08,26.92,10.32,37.72,19.61s18.43,23.57,15.94,37.59c-1.61,9-7.14,16.89-13.18,23.8-13.66,15.66-30.58,28.18-48.35,39-75,45.56-167.73,61-253.44,42.2-6-1.32-12.72-3.38-15.37-8.92Z"/></g><path class="cls-28" d="M2154,1692.61s-64.23,99.46-48.62,197.91S2110.6,2602,2110.6,2602s113.49,15.1,202.12-18.46c1.91-88.63-44-864-44-864Z"/><g class="cls-29"><g class="cls-30"><path class="cls-31" d="M2222.45,1682.32c-24.65,112.56-38,229-22.68,343.17,5.13,38.2,13.45,76,16.13,114.46,2.09,29.86.76,59.86-1.82,89.69a1071.56,1071.56,0,0,1-111.14,390.25c85.23,28,180.62,23.84,263.07-11.53,15.43-6.62,31.29-15.11,39.45-29.78,7.08-12.73,7.19-28,6.77-42.61-3.44-120.69-30.53-239.29-47.19-358.89-20.59-147.74-25.32-297.47-49.3-444.7-1-6-2.13-12.35-6-17.09s-11.34-7.13-16.21-3.45Z"/></g></g><ellipse class="cls-32" cx="2197.64" cy="2480.68" rx="35.98" ry="98.16" transform="translate(-1074.67 3005.49) rotate(-57.57)"/><path class="cls-33" d="M2283.25,2717.66c-4.23.82-8.62,1.51-13.12,2.06-47.28,5.92-128.56,10.35-138.88-14.76s-51.74-137.42-62.07-167.72c-1.61-4.74-.71-10.68,2-17.31,3.83-9.44,11.26-20.28,20.12-31.12,24.67-30.28,60.49-60.64,60.49-60.64,50.07-2,121.35,72.74,121.35,72.74l-34,45.93,19.22,107.87s2.94,8.87,49.4,23.65c12.53,4,19,8.4,20.86,12.84C2333,2701.66,2311.62,2712.25,2283.25,2717.66Z"/><path class="cls-5" d="M2283.25,2717.66c-4.23.82-8.62,1.51-13.12,2.06-47.28,5.92-128.56,10.35-138.88-14.76s-51.74-137.42-62.07-167.72c-1.61-4.74-.71-10.68,2-17.31,3.83-9.44,11.26-20.28,20.12-31.12a244.74,244.74,0,0,1,36.09-1.88c17.46.35,35.57,2.83,50.18,12.41,22,14.41,31.56,41.85,35,67.91s2.2,52.86,9.31,78.15c4.19,14.9,11.77,29.62,24.63,38.22,8.82,5.87,19.41,8.46,29.9,9.84a152.73,152.73,0,0,0,52.22-2.26C2333,2701.66,2311.62,2712.25,2283.25,2717.66Z"/><g class="cls-34"><path d="M2283.24,2717.65c-4.23.82-8.62,1.51-13.12,2.06-47.28,5.92-128.56,10.35-138.88-14.76s-51.74-137.42-62.07-167.72c-1.61-4.74-.7-10.68,2-17.31,19.41-11,46.54-17.53,79.28-1.15C2215.44,2551.26,2176.81,2718.45,2283.24,2717.65Z"/></g><path class="cls-28" d="M2236.14,1710.48s-64.28,126.28-44.33,227.16,101.61,234.06,101.61,234.06l-175.71,254.8s111.3-13.39,160.3,110.73c113.43-172.89,221.89-339.3,219.68-383.54s-106.25-382.63-106.25-382.63Z"/><g class="cls-35"><g class="cls-34"><path class="cls-5" d="M2213.89,2493.21a2,2,0,0,1-1.17-.38,2,2,0,0,1-.46-2.79c1.94-2.69,4.31-6,7-9.81a2,2,0,1,1,3.25,2.33c-2.75,3.83-5.11,7.13-7,9.82A2,2,0,0,1,2213.89,2493.21ZM2228,2473.6a2,2,0,0,1-1.17-.38,2,2,0,0,1-.46-2.79q3.3-4.59,7-9.79a2,2,0,0,1,3.26,2.32q-3.72,5.2-7,9.8A2,2,0,0,1,2228,2473.6Zm14-19.6a2,2,0,0,1-1.63-3.16l7-9.8a2,2,0,1,1,3.26,2.32l-7,9.8A2,2,0,0,1,2242,2454Zm14-19.6a2,2,0,0,1-1.63-3.16l7-9.81a2,2,0,1,1,3.26,2.32l-7,9.81A2,2,0,0,1,2255.94,2434.4Zm13.92-19.62a2,2,0,0,1-1.15-.37,2,2,0,0,1-.48-2.79l6.94-9.82a2,2,0,0,1,3.27,2.31q-3.53,5-7,9.82A2,2,0,0,1,2269.86,2414.78Zm13.88-19.65a2,2,0,0,1-1.15-.36,2,2,0,0,1-.48-2.79l6.92-9.83a2,2,0,1,1,3.27,2.3l-6.92,9.83A2,2,0,0,1,2283.74,2395.13Zm13.83-19.67a2,2,0,0,1-1.14-.36,2,2,0,0,1-.49-2.79l6.9-9.84a2,2,0,0,1,3.27,2.29q-3.46,5-6.9,9.85A2,2,0,0,1,2297.57,2375.46Zm13.79-19.7a2,2,0,0,1-1.14-.36,2,2,0,0,1-.5-2.78l6.88-9.86a2,2,0,1,1,3.28,2.28l-6.87,9.87A2,2,0,0,1,2311.36,2355.76ZM2325.1,2336a2,2,0,0,1-1.14-.36,2,2,0,0,1-.5-2.78l6.84-9.88a2,2,0,0,1,3.29,2.27q-3.42,4.95-6.85,9.89A2,2,0,0,1,2325.1,2336Zm13.68-19.78a2,2,0,0,1-1.13-.36,2,2,0,0,1-.52-2.78q3.42-5,6.8-9.88a2,2,0,0,1,3.3,2.27l-6.8,9.88A2,2,0,0,1,2338.78,2316.25Zm13.59-19.8a2.06,2.06,0,0,1-1.13-.35,2,2,0,0,1-.52-2.78q3.42-5,6.77-9.93a2,2,0,0,1,3.31,2.25q-3.36,4.93-6.78,9.94A2,2,0,0,1,2352.37,2296.45Zm13.53-19.88a1.93,1.93,0,0,1-1.12-.35,2,2,0,0,1-.54-2.77q3.41-5,6.73-10a2,2,0,0,1,3.32,2.24q-3.33,4.94-6.73,10A2,2,0,0,1,2365.9,2276.57Zm13.42-20a2.05,2.05,0,0,1-1.11-.33,2,2,0,0,1-.55-2.78q3.39-5.07,6.66-10a2,2,0,0,1,3.34,2.21q-3.28,4.93-6.67,10A2,2,0,0,1,2379.32,2256.61Zm13.29-20a2,2,0,0,1-1.67-3.1q3.38-5.13,6.58-10.06a2,2,0,1,1,3.35,2.17q-3.21,5-6.58,10.08A2,2,0,0,1,2392.61,2236.57Zm13.11-20.18a2.05,2.05,0,0,1-1.08-.32,2,2,0,0,1-.6-2.76q3.35-5.22,6.44-10.15a2,2,0,0,1,3.39,2.13q-3.1,4.93-6.47,10.18A2,2,0,0,1,2405.72,2216.39Zm12.82-20.38a2,2,0,0,1-1.71-3.05c2.23-3.62,4.32-7.07,6.22-10.28a2,2,0,1,1,3.44,2c-1.91,3.23-4,6.7-6.25,10.34A2,2,0,0,1,2418.54,2196Zm12.26-20.74a2,2,0,0,1-1.74-3c2.24-4,4.12-7.57,5.59-10.57a2,2,0,0,1,3.6,1.76c-1.51,3.07-3.42,6.69-5.7,10.76A2,2,0,0,1,2430.8,2175.27Zm9.87-21.88h-.21a2,2,0,0,1-1.79-2.19,2.77,2.77,0,0,0,0-.39c0-.06,0-.11,0-.17-.15-1.61-.82-5.22-2-10.72a2,2,0,1,1,3.91-.83c1.23,5.73,1.9,9.38,2.07,11.18a4.63,4.63,0,0,1,0,.54,7.8,7.8,0,0,1,0,.8A2,2,0,0,1,2440.67,2153.39ZM2436,2129.7a2,2,0,0,1-1.95-1.55c-.81-3.57-1.73-7.49-2.73-11.73a2,2,0,1,1,3.9-.92c1,4.25,1.91,8.18,2.73,11.76a2,2,0,0,1-1.5,2.39A1.73,1.73,0,0,1,2436,2129.7Zm-5.52-23.46a2,2,0,0,1-1.94-1.53c-.9-3.73-1.84-7.64-2.83-11.7a2,2,0,0,1,3.89-1q1.49,6.11,2.82,11.71a2,2,0,0,1-1.47,2.41A2,2,0,0,1,2430.5,2106.24Zm-5.68-23.4a2,2,0,0,1-1.94-1.52q-1.38-5.68-2.87-11.68a2,2,0,0,1,3.89-1l2.87,11.69a2,2,0,0,1-1.47,2.41A2,2,0,0,1,2424.82,2082.84Zm-5.75-23.36a2,2,0,0,1-1.94-1.52q-1.43-5.73-2.9-11.67a2,2,0,1,1,3.88-1q1.48,5.94,2.9,11.68a2,2,0,0,1-1.46,2.42A2,2,0,0,1,2419.07,2059.48Zm-5.81-23.34a2,2,0,0,1-1.94-1.52l-2.91-11.66a2,2,0,0,1,3.88-1l2.92,11.67a2,2,0,0,1-1.46,2.43A2.05,2.05,0,0,1,2413.26,2036.14Zm-5.84-23.33a2,2,0,0,1-1.94-1.51q-1.45-5.79-2.93-11.66a2,2,0,0,1,3.88-1q1.47,5.88,2.93,11.66a2,2,0,0,1-1.45,2.43A2.12,2.12,0,0,1,2407.42,2012.81Zm-5.87-23.32a2,2,0,0,1-1.94-1.51l-2.94-11.65a2,2,0,1,1,3.87-1l2.95,11.65a2,2,0,0,1-1.45,2.43A2.05,2.05,0,0,1,2401.55,1989.49Zm-5.9-23.31a2,2,0,0,1-1.93-1.51l-3-11.65a2,2,0,0,1,3.88-1l3,11.65a2,2,0,0,1-1.44,2.43A2.14,2.14,0,0,1,2395.65,1966.18Zm-5.91-23.3a2,2,0,0,1-1.94-1.51l-3-11.65a2,2,0,1,1,3.87-1l3,11.65a2,2,0,0,1-1.45,2.44A2.05,2.05,0,0,1,2389.74,1942.88Zm-5.93-23.31a2,2,0,0,1-1.94-1.5l-3-11.62a2,2,0,0,1,3.87-1l3,11.62a2,2,0,0,1-1.45,2.43A2.05,2.05,0,0,1,2383.81,1919.57Zm-5.94-23.26a2,2,0,0,1-1.94-1.51l-3-11.65a2,2,0,1,1,3.87-1l3,11.65a2,2,0,0,1-1.44,2.43A1.77,1.77,0,0,1,2377.87,1896.31Zm-6-23.3a2,2,0,0,1-1.94-1.5l-3-11.65a2,2,0,0,1,3.88-1l3,11.64a2,2,0,0,1-1.44,2.44A2.2,2.2,0,0,1,2371.91,1873Zm-6-23.29a2,2,0,0,1-1.94-1.51l-3-11.64a2,2,0,0,1,3.88-1l3,11.65a2,2,0,0,1-1.44,2.43A1.77,1.77,0,0,1,2365.94,1849.72Zm-6-23.3a2,2,0,0,1-1.94-1.5l-3-11.65a2,2,0,0,1,3.87-1l3,11.64a2,2,0,0,1-1.44,2.44A2.2,2.2,0,0,1,2360,1826.42Zm-6-23.3a2,2,0,0,1-1.94-1.5l-3-11.65a2,2,0,0,1,3.87-1l3,11.66a2,2,0,0,1-1.43,2.43A2.2,2.2,0,0,1,2354,1803.12Zm-6-23.3a2,2,0,0,1-1.94-1.5l-3-11.66a2,2,0,1,1,3.87-1l3,11.66a2,2,0,0,1-1.44,2.43A1.73,1.73,0,0,1,2348,1779.82Zm-6-23.33a2,2,0,0,1-1.93-1.5l-3-11.67a2,2,0,1,1,3.87-1l3,11.67a2,2,0,0,1-1.44,2.44A2.14,2.14,0,0,1,2341.94,1756.49Zm-6-23.36a2,2,0,0,1-1.94-1.5l-3.05-11.78a2,2,0,0,1,3.87-1l3.06,11.78a2,2,0,0,1-1.44,2.44A1.77,1.77,0,0,1,2335.9,1733.13Z"/></g><g class="cls-34"><path class="cls-5" d="M2382.27,1896.28a25.32,25.32,0,0,1-4.95-.44,2,2,0,0,1,.88-3.91,20,20,0,0,0,4.07.35,28.39,28.39,0,0,0,6.92-.86,2,2,0,0,1,1,3.88A32.36,32.36,0,0,1,2382.27,1896.28Zm18.16-6a2,2,0,0,1-1.2-3.6,34.2,34.2,0,0,0,7.73-8.21,2,2,0,0,1,3.3,2.26,38.21,38.21,0,0,1-8.63,9.15A2,2,0,0,1,2400.43,1890.23Zm13.67-19.3a1.81,1.81,0,0,1-.72-.14,2,2,0,0,1-1.15-2.58,77,77,0,0,0,3.32-11.19,2,2,0,1,1,3.9.86,79.6,79.6,0,0,1-3.49,11.77A2,2,0,0,1,2414.1,1870.93Zm5.31-23.31h-.22a2,2,0,0,1-1.77-2.21c.41-3.71.68-7.68.81-11.8a2,2,0,1,1,4,.12c-.14,4.23-.42,8.3-.84,12.12A2,2,0,0,1,2419.41,1847.62Zm.82-24a2,2,0,0,1-2-1.94c-.11-3.8-.32-7.8-.62-11.89a2,2,0,1,1,4-.3c.32,4.16.53,8.22.63,12.08a2,2,0,0,1-1.94,2.05Zm-1.76-23.92a2,2,0,0,1-2-1.78c-.21-1.83-.43-3.69-.68-5.59a2,2,0,0,1,4-.51q.36,2.88.68,5.65a2,2,0,0,1-1.76,2.21Z"/></g><g class="cls-34"><path class="cls-31" d="M2183.23,1928.91c12.2,87.73,65.92,168.77,142,214.18,10.25,6.11,22,13.17,24,24.94,1.45,8.71-3.11,17.19-7.6,24.79-37.7,63.8-82,123.74-115.45,189.87-3.67,7.26-7.29,15.48-4.9,23.25,2.13,6.95,8.48,11.58,14.31,15.92,32.92,24.51,62.12,58.08,68.28,98.65,1,6.59,1.14,14-3.21,19.08-3.72,4.31-9.72,5.7-15.3,6.84-19.06,3.92-38.36,7.86-57.8,7s-39.36-6.9-53.25-20.53c-10.29-10.11-16.57-23.55-25.58-34.81-22.45-28.06-58.92-39.73-90.66-56.56-8.4-4.45-17.55-10.88-18-20.37-.27-5.51,2.56-10.65,5.51-15.31,24-37.93,62.28-67.76,75.28-110.74,5.76-19,6-39.21,6.26-59.09q.39-34.77.79-69.56c.22-19.43.39-39.26-5.54-57.77Z"/></g></g><path class="cls-36" d="M2385.2,1168c1.94-.5,2.71-24.94,34.05-27.16s19.7,7.21,19.7,7.21,44.19-14.41,67.25,13.3,31.38,57.62,48,72-19.4,45.92-31,47.07-131.33,62.73-131.33,62.73l-21.61-21.69s1.11,4.43-10.53,0S2265.51,1198.47,2385.2,1168Z"/><path class="cls-2" d="M2385.2,1168c1.94-.5,2.71-24.94,34.05-27.16s19.7,7.21,19.7,7.21,44.19-14.41,67.25,13.3,31.38,57.62,48,72-19.4,45.92-31,47.07-131.33,62.73-131.33,62.73l-21.61-21.69s1.11,4.43-10.53,0S2265.51,1198.47,2385.2,1168Z"/><g class="cls-37"><path class="cls-33" d="M2402.78,1184.44a39.31,39.31,0,0,1,36.75-18,26.72,26.72,0,0,0-10.47,19.68c15.57-6.64,33.91-11.57,49-3.83,19.65,10.1,24.33,36.52,40.73,51.32,19.85,17.91,50.9,14.2,76.11,5.29A266.81,266.81,0,0,0,2538,1277c-34.84,30.54-63.05,71-105.95,88.54-8.38,3.42-17.29,5.88-26.34,5.84-19.61-.09-37.72-12.13-49.4-27.88s-17.86-34.86-22.65-53.87c-3.75-14.85-6.77-30.52-3-45.36a71.71,71.71,0,0,1,9.61-20.74,118.93,118.93,0,0,1,37.36-36.48,29.27,29.27,0,0,1,25.09-2.65Z"/></g><path class="cls-23" d="M2536.48,1248.9c-10.53,13.85-37.13,16.62-23.83,0-29.37,26-55.41,21-46.55,2.77-6.65,7.2-27.7,17.18-27.7,17.18l-3.17,5.47c-9.52-10.83-24.59-14.1-35.75-7-12.53,8-15.4,25.9-6.39,40.08a32.77,32.77,0,0,0,15.46,13l-.63,1.09s-16.62,1.66-18.29,3.32-10,4.43-19.39-3.32c-2.22,12.19-17.18,38.79-17.18,38.79l92,40.45s-7.76-27.16,0-36.58c54.85,26,78.68-39.34,78.68-39.34s8.33-3.32,3.88-15C2537.58,1283.81,2536.48,1248.9,2536.48,1248.9Z"/><g class="cls-38"><path class="cls-39" d="M2545.86,1217.91c-7.43-7.94-18.07-12.16-28.72-14.36-36-7.47-75.64,7-98.34,35.94l19,32.85,11.68-4.62a8,8,0,0,1,2.9-.74c1.57,0,3,.9,4.32,1.68,13.69,7.85,32.61,5,43.38-6.52,1.07,3.44,4.6,5.65,8.17,6.21s7.18-.21,10.7-1c13-2.89,27.63-7.28,33.25-19.35C2556.76,1238.14,2553.28,1225.86,2545.86,1217.91Z"/><path class="cls-25" d="M2473.28,1366.7c-13.36-3.75-24.27-14.5-38-16.57-2.93-.44-6.16-.39-8.54,1.37-3,2.24-3.7,6.45-3.81,10.22a68.81,68.81,0,0,0,5.52,29.15c2.82,6.56,6.78,12.8,12.43,17.17s13.17,6.67,20.11,5l38.26-48.11A39.14,39.14,0,0,1,2473.28,1366.7Z"/></g><path class="cls-25" d="M2414.44,1278.05a19,19,0,0,1,6.3,5,20,20,0,0,1,4,7.21,14.25,14.25,0,0,1,0,8.5,11.9,11.9,0,0,1-5,6.46,23.8,23.8,0,0,0,1.93-7.12,18.25,18.25,0,0,0-.76-6.72,38.42,38.42,0,0,0-2.74-6.58C2417,1282.57,2415.75,1280.39,2414.44,1278.05Z"/><path class="cls-25" d="M2423.28,1292.79c-1.71-.38-3.17-.74-4.58-1a22.84,22.84,0,0,0-4-.46,15.77,15.77,0,0,0-3.88.36c-.7.08-1.36.34-2.12.49s-1.48.48-2.39.64a8.37,8.37,0,0,1,.56-1.17,5.72,5.72,0,0,1,.72-1.09,8.36,8.36,0,0,1,2-1.76,8.83,8.83,0,0,1,5.22-1.46,10,10,0,0,1,5.11,1.56A8.48,8.48,0,0,1,2423.28,1292.79Z"/><ellipse class="cls-40" cx="2502.19" cy="1287.43" rx="8.92" ry="5.95" transform="translate(669.2 3422.5) rotate(-76.58)"/><path class="cls-5" d="M2506.2,1328.41s-8.77,1-18.24-5.78-11.84,19,.89,20.5C2497,1344.1,2506.2,1328.41,2506.2,1328.41Z"/><ellipse class="cls-41" cx="2462.92" cy="1298.32" rx="18.35" ry="14.88" transform="translate(480.76 3253.48) rotate(-72.4)"/><path class="cls-42" d="M2742.74,1826.85c0,1-.22,74.36-68.84,92-9.09-5.94-18.31-12.08-27.55-18.37-75.43-51.21-152.45-110.65-165.29-123.49-14.4-14.4-31-54.3-31-54.3l-9.35,41.87L2428,1821.3s-40.41-21.52-95.15-43.39c-66.94-26.76-155.31-54-217.51-43.05q7.45-27.49,14.92-54c39.9-140,84.89-255,182.35-306.21,12.19-22.16,22.17-37.68,79.79-14.4s62.07,38.78,65.39,47.65,5.12,14.41,5.12,14.41a2.37,2.37,0,0,0,.36.17c.9.43,3.48,1.69,7.18,3.71a.21.21,0,0,0,.11,0c15.91,8.62,52.31,30.74,66,59.07,17.69,36.75,60.91,210.74,60.91,210.74L2717.7,1804.3Z"/><path class="cls-5" d="M2440.68,1764.54,2428,1821.3s-199.62-106.39-312.66-86.44q7.45-27.49,14.92-54C2185.27,1675.33,2310.22,1675.62,2440.68,1764.54Z"/><g class="cls-43"><path d="M2450,1722.67l-9.35,41.87L2428,1821.3s-40.41-21.52-95.15-43.39L2428,1617.39Z"/></g><path class="cls-5" d="M2673.9,1918.83c-9.09-5.94-27.92-18.65-37.16-24.94,29.76-6.57,67.25-49.14,72.13-97.53l33.87,30.49S2743,1904.42,2673.9,1918.83Z"/><path class="cls-5" d="M2457.79,1407.93c3.33,8.87,5.12,14.41,5.12,14.41-95.73-51-150.3-47.66-150.3-47.66,12.19-22.16,22.17-37.68,79.79-14.4S2454.47,1399.06,2457.79,1407.93Z"/><g class="cls-34"><path d="M2358.05,2179.05a2,2,0,0,1-1.34-.51c-30.52-27.36-60.84-6.13-62.12-5.22l-2.16,1.56-.89-2.51c-.32-.89-7.62-22,3.09-36.83,6.8-9.44,19.21-14,36.86-13.68a2,2,0,0,1,2,2,2,2,0,0,1-2,2c-16.28-.32-27.53,3.72-33.52,12-7.53,10.42-4.79,25-3.3,30.75,8.24-4.77,36.83-18.12,64.79,6.95a2,2,0,0,1-1.33,3.49Z"/></g><path class="cls-44" d="M1622.45,2252.13s55.87-288.92,80.41-297.1,94,297.1,94,297.1h15s-53.15-299.83-106.3-318.91-95.4,318.91-95.4,318.91Z"/><path class="cls-28" d="M1850,2524.32c-.27-12.78-1.47-50.8-4.85-92.32,0,0,0,0,0,0-2.67-32.82-6.73-67.79-12.78-94.15-11.83-51.68-2.43-89.76.05-108.16.66-4.9.82-8.39-.05-10.41-1.37-3.16-16.49-4.22-36.17-4.25-15.65-78.72-57.79-270.36-99.93-285.49-43.69-15.67-80,209.85-91.56,290.67-3.67.11-6.59.27-8.44.43-13.2,1.18-8.48,87.34-2.76,144.28.9,9.16,1.86,17.55,2.76,24.72,6.48,51.79-9.22,113.12-1.91,138.93s255.72,6.9,255.72,0C1850,2528,1850,2526.5,1850,2524.32Zm-156.45-573c19.48-6.48,67.4,185,86.24,263.88-37.62.82-81.58,4.06-81.58,4.06s-48.55,0-79.38.57C1633.65,2146.68,1673.74,1957.92,1693.51,1951.32Z"/><g class="cls-43"><path class="cls-5" d="M1845.11,2432c-19.95-24.53-44.37-53.75-65.36-76.27-29.71-31.92,17.88-90.63,52.63-126-2.48,18.4-11.88,56.48-.05,108.16C1838.38,2364.19,1842.44,2399.16,1845.11,2432Z"/></g><g class="cls-43"><path class="cls-5" d="M1850,2528.55c0,6.9-248.42,25.84-255.72,0s8.39-87.14,1.91-138.93c-.9-7.17-1.86-15.56-2.76-24.72,21,22.38,52.28,47.7,90.31,54.87,72.23,13.62-46.34,8.17-60,27.25-13.3,18.65,91.72,89.3,226.15,77.3C1850,2526.5,1850,2528,1850,2528.55Z"/></g><path class="cls-25" d="M1734.16,1909.54s9.87,53.55,0,64.83-43.06,32.52-45.71,27.21,15.25-39.8,15.25-39.8-23.75-35.64-15.52-46S1734.16,1909.54,1734.16,1909.54Z"/><path class="cls-45" d="M1658.81,2592.34l-103.34,9.77-13.71,95.95,358.7,13.22S1879.1,2673.52,1658.81,2592.34Z"/><polygon class="cls-26" points="1900.46 2711.28 1541.76 2698.06 1537.99 2724.49 1896.68 2728.27 1900.46 2711.28"/><path class="cls-26" d="M1687.16,2600.35c-11.51,11.38-19.33,25.6-28.48,38.8-1.83,2.65,2.5,5.16,4.32,2.53,8.91-12.86,16.49-26.71,27.7-37.8,2.29-2.26-1.25-5.8-3.54-3.53Z"/><path class="cls-26" d="M1709.67,2607c-11.51,11.39-19.33,25.6-28.48,38.81-1.83,2.65,2.5,5.15,4.32,2.52,8.91-12.86,16.49-26.71,27.69-37.79,2.3-2.27-1.24-5.81-3.53-3.54Z"/><path class="cls-26" d="M1734.36,2615.45c-11.51,11.39-19.33,25.6-28.48,38.81-1.84,2.65,2.5,5.15,4.32,2.52,8.91-12.86,16.49-26.71,27.69-37.8,2.29-2.26-1.24-5.8-3.53-3.53Z"/><path class="cls-46" d="M1527.88,2599.52l-103.34,9.77-13.71,95.95,358.7,13.21S1748.17,2680.69,1527.88,2599.52Z"/><polygon class="cls-26" points="1769.53 2718.45 1410.83 2705.24 1407.06 2731.67 1765.75 2735.44 1769.53 2718.45"/><path class="cls-26" d="M1556.23,2607.52c-11.51,11.39-19.33,25.6-28.47,38.81-1.84,2.65,2.49,5.15,4.31,2.52,8.91-12.86,16.49-26.71,27.7-37.79,2.29-2.27-1.25-5.81-3.54-3.54Z"/><path class="cls-26" d="M1578.74,2614.19c-11.51,11.39-19.33,25.61-28.48,38.81-1.83,2.65,2.5,5.16,4.32,2.53,8.91-12.86,16.49-26.71,27.7-37.8,2.29-2.27-1.25-5.8-3.54-3.54Z"/><path class="cls-26" d="M1603.43,2622.62c-11.51,11.39-19.33,25.6-28.48,38.81-1.83,2.65,2.5,5.15,4.32,2.52,8.91-12.85,16.49-26.71,27.69-37.79,2.29-2.27-1.24-5.8-3.53-3.54Z"/><path class="cls-47" d="M1404.22,1770.11v787.73H1693s7.63-254.36,14.46-400.21c3.73-79.45-19.07-420.74-19.07-420.74Z"/><g class="cls-34"><polygon points="1586.33 2546.25 1586.33 1926.38 1623.9 2557.84 1586.33 2557.84 1586.33 2546.25"/></g><polygon class="cls-48" points="1719 2535.3 1526.31 2551.2 1532.11 2623.39 1721.5 2607.32 1719 2535.3"/><polygon class="cls-28" points="1600.79 2545.59 1388.78 2539.01 1387.47 2611.47 1595.9 2617.49 1600.79 2545.59"/><polygon class="cls-5" points="1502.14 1362.79 1404.22 1395.08 1470.7 1790.94 1667.78 1775.32 1644.86 1400.29 1502.14 1362.79"/><g class="cls-49"><path class="cls-50" d="M1422.56,1789c68.25-53.15,116.35-129,147.12-209.86s45.2-167,55.24-252.88c68.28,77.73,109.39,178.88,114.67,282.21,1.49,29.09.18,58.62-7.68,86.66-14,49.82-48.46,92.58-91.27,121.65s-93.52,45.13-144.82,51.9c-43.44,5.73-90.18,4.35-127.5-18.62Z"/></g><path class="cls-51" d="M1461.06,1182.78s-9.83-20.58,29.82-36.4,51.91,6.5,96.77-3.73,90,76.87,23.8,112.09a1164.48,1164.48,0,0,0-115.55,70.37s-16.15,19.34-30.66,13.83.67-30.79.67-30.79S1353.61,1230.52,1461.06,1182.78Z"/><g class="cls-52"><path class="cls-53" d="M1469,1202.08a59.83,59.83,0,0,0,19.53,13.12,24.49,24.49,0,0,1,8.94-45.54,20,20,0,0,0-2.84,18.23c2.51-10.49,15.13-15.26,25.9-14.73s21.26,4.55,32,4.18c17.77-.6,33.07-12.84,50.5-16.36a52.53,52.53,0,0,1,62,61.39c-3,15.68-13.07,29.26-25.08,39.78s-26,18.43-39.6,26.85a554,554,0,0,0-70.44,51.88c-10.1,8.75-20,17.91-31.4,24.8s-24.82,11.4-38.08,9.82c-2.93-.35-6-1.06-8.21-3a15.26,15.26,0,0,1-4-6.64c-7.1-19.93.68-42.41,13-59.63,1.93-2.71,4-5.47,4.65-8.74,1.53-8.1-6.17-14.56-12.17-20.22-10.92-10.29-18.69-24.77-18-39.75s11.47-29.79,26.25-32.36Z"/></g><path class="cls-23" d="M1604.74,1214c-6.84,23.68-54.77,26.19-67.67,22.94s-14.17,28.1-14.57,38.74c-.19,5-7.06,5.73-14.3,5.11a35.55,35.55,0,0,0-13.57-8c-16.69-5.44-34,1.86-38.75,16.3s5,30.56,21.71,36a35.83,35.83,0,0,0,6.22,1.44l-.11.68-3,46.86s87.6,80.67,84.23,3.43c0,0-6.33-17.53-8.22-29C1683.61,1370.48,1604.74,1214,1604.74,1214Z"/><g class="cls-54"><path class="cls-25" d="M1635.11,1197.48c-4.61-14.41-18.3-24.56-32.93-28.44s-30.14-2.37-45,.33c-35.2,6.38-70.3,20.1-95,46l50.48,64.72a33,33,0,0,0,17.54-16.47c1.24-2.65,2.23-5.6,4.53-7.39s5.12-2,7.89-2.25c29.87-2.63,62.26-6.53,83.7-27.5,4.65-4.55,8.73-10,9.88-16.45A26.1,26.1,0,0,0,1635.11,1197.48Z"/><path class="cls-25" d="M1513.65,1337a5.38,5.38,0,0,0-2.56-.33c-2.77.55-3,4.51-1.9,7.13,2,5.1,6.06,9.12,10,13,5.78,5.61,11.72,11.21,18.73,15.19s15.28,6.27,23.2,4.76,15.25-7.36,17.05-15.22l2.55-11C1562.86,1352.86,1530.91,1342.18,1513.65,1337Z"/></g><path class="cls-25" d="M1618.64,1260.33s24.48,20.54,12.48,28c-8.84,5.47-11.61.33-13.87-4S1610.81,1257.41,1618.64,1260.33Z"/><path class="cls-25" d="M1470.7,1293a12,12,0,0,1,7.37-4.33,12.65,12.65,0,0,1,8.87,1.76,17.8,17.8,0,0,1,6,6.35,21.5,21.5,0,0,1,2.7,8c-1.87-2.11-3.5-4.21-5.24-6.1a26.47,26.47,0,0,0-5.55-4.78,13.35,13.35,0,0,0-6.56-2.06A21.3,21.3,0,0,0,1470.7,1293Z"/><path class="cls-25" d="M1482.46,1306.87a7.93,7.93,0,0,1-4.33-8.32,6.32,6.32,0,0,1,.39-1.35,10.66,10.66,0,0,1,.67-1.25c.3-.35.6-.71.92-1a5.74,5.74,0,0,1,1.07-.78c.18-.12.37-.22.55-.33a6,6,0,0,1,.59-.22c.39-.13.79-.24,1.18-.34a8.46,8.46,0,0,1,2.41,0,18.11,18.11,0,0,1-1.49,1.72q-.32.42-.63.78l-.31.35c-.08.14-.15.27-.23.39a6.31,6.31,0,0,0-1.19,2.76,12.92,12.92,0,0,0-.06,3.33Z"/><path class="cls-40" d="M1585.65,1238.37a18.75,18.75,0,0,0-2.38-.44,21,21,0,0,0-2.5-.14,16.21,16.21,0,0,0-4.76.69,11.17,11.17,0,0,0-4,2.12,12.94,12.94,0,0,0-2.89,3.39l-.15.23a3,3,0,0,1-5.07-3.38l.14-.19a18.74,18.74,0,0,1,4.71-4.56,16.59,16.59,0,0,1,6-2.5,21.44,21.44,0,0,1,6.22-.32,25.29,25.29,0,0,1,3,.47,19.78,19.78,0,0,1,3,.86,2,2,0,0,1-1.18,3.81Z"/><circle class="cls-40" cx="1588.14" cy="1261.72" r="7.41"/><circle class="cls-41" cx="1549.42" cy="1290.28" r="19.73"/><path class="cls-40" d="M1606.62,1319.42a22.77,22.77,0,0,1-17.78-8.5,2,2,0,0,1,3.26-2.31c.34.48,8.23,11.13,23.9,4.84a2,2,0,0,1,1.49,3.71A29.09,29.09,0,0,1,1606.62,1319.42Z"/><path class="cls-9" d="M1748,1926.38h-41.69l-8.31-87.51h-63.57s-17.69-227.11-20.34-300-27.76-153.94-27.76-153.94,86.67,3.93,101.23,72.69S1748,1926.38,1748,1926.38Z"/><g class="cls-55"><g class="cls-34"><path class="cls-5" d="M1877.83,1389.33v-5.54h-46v-23.92h-5.54v23.92H1795v-23.92h-5.54v23.92h-36.1v-23.92h-5.54v23.92h-36.1v-23.92h-5.54v23.92h-36.1v-23.92h-5.54v23.92h-36.1v-23.92h-5.54v23.92h-36.1v-23.92h-5.54v23.92h-37v5.54h37v36.1h-37V1431h37v36.1h-37v5.54h37v36.1h-37v5.54h37v36.1h-37v5.54h37V1592h-37v5.54h37v31.29h-37v5.54h37v33.22h-37v5.54h37v36.1h-37v5.54h37v36.1h-37v5.54h37v36.1h-37V1798h37v36.1h-37v5.54h37v36.1h-37v5.54h37v31.29h-37v5.54h37v33.26h5.54v-33.26h36.1v33.26h5.54v-33.26h36.1v33.26h5.54v-33.26h36.1v33.26h5.54v-33.26h36.1v33.26h5.54v-33.26h36.1v33.26H1795v-33.26h31.29v33.26h5.54v-33.26h46v-5.54h-46v-31.29h46v-5.54h-46v-36.1h46v-5.54h-46V1798h46v-5.54h-46v-36.1h46v-5.54h-46v-36.1h46v-5.54h-46v-36.1h46v-5.54h-46v-33.22h46v-5.54h-46v-31.29h46V1592h-46v-36.1h46v-5.54h-46v-36.1h46v-5.54h-46v-36.1h46v-5.54h-46V1431h46v-5.54h-46v-36.1Zm-88.38,0v36.1h-36.1v-36.1Zm-83.28,124.92v36.1h-36.1v-36.1Zm-36.1-5.54v-36.1h36.1v36.1Zm36.1,47.18V1592h-36.1v-36.1Zm0,41.64v31.29h-36.1v-31.29Zm0,36.83v33.22h-36.1v-33.22Zm0,38.76v36.1h-36.1v-36.1Zm0,41.64v36.1h-36.1v-36.1Zm0,41.64v36.1h-36.1v-36.1Zm0,41.64v36.1h-36.1V1798Zm5.54,0h36.1v36.1h-36.1Zm0-5.54v-36.1h36.1v36.1Zm0-41.64v-36.1h36.1v36.1Zm0-41.64v-36.1h36.1v36.1Zm0-41.64v-33.22h36.1v33.22Zm0-38.76v-31.29h36.1v31.29Zm0-36.83v-36.1h36.1V1592Zm0-41.64v-36.1h36.1v36.1Zm0-41.64v-36.1h36.1v36.1Zm0-41.64V1431h36.1v36.1Zm-5.54,0h-36.1V1431h36.1Zm-41.64,0h-36.1V1431h36.1Zm0,5.54v36.1h-36.1v-36.1Zm0,41.64v36.1h-36.1v-36.1Zm0,41.64V1592h-36.1v-36.1Zm0,41.64v31.29h-36.1v-31.29Zm0,36.83v33.22h-36.1v-33.22Zm0,38.76v36.1h-36.1v-36.1Zm0,41.64v36.1h-36.1v-36.1Zm0,41.64v36.1h-36.1v-36.1Zm0,41.64v36.1h-36.1V1798Zm0,41.64v36.1h-36.1v-36.1Zm5.54,0h36.1v36.1h-36.1Zm41.64,0h36.1v36.1h-36.1Zm41.64,0h36.1v36.1h-36.1Zm0-5.54V1798h36.1v36.1Zm0-41.64v-36.1h36.1v36.1Zm0-41.64v-36.1h36.1v36.1Zm0-41.64v-36.1h36.1v36.1Zm0-41.64v-33.22h36.1v33.22Zm0-38.76v-31.29h36.1v31.29Zm0-36.83v-36.1h36.1V1592Zm0-41.64v-36.1h36.1v36.1Zm0-41.64v-36.1h36.1v36.1Zm0-41.64V1431h36.1v36.1Zm-5.54-77.74v36.1h-36.1v-36.1Zm-41.64,0v36.1h-36.1v-36.1Zm-41.64,0v36.1h-36.1v-36.1Zm-77.74,0h36.1v36.1h-36.1Zm0,41.64h36.1v36.1h-36.1Zm0,41.64h36.1v36.1h-36.1Zm0,41.64h36.1v36.1h-36.1Zm0,41.64h36.1V1592h-36.1Zm0,41.64h36.1v31.29h-36.1Zm0,36.83h36.1v33.22h-36.1Zm0,38.76h36.1v36.1h-36.1Zm0,41.64h36.1v36.1h-36.1Zm0,41.64h36.1v36.1h-36.1Zm0,41.64h36.1v36.1h-36.1Zm0,41.64h36.1v36.1h-36.1Zm0,72.93v-31.29h36.1v31.29Zm41.64,0v-31.29h36.1v31.29Zm41.64,0v-31.29h36.1v31.29Zm41.64,0v-31.29h36.1v31.29Zm41.64,0v-31.29h36.1v31.29Zm72.93,0H1795v-31.29h31.29Zm0-36.83H1795v-36.1h31.29Zm0-41.64H1795V1798h31.29Zm0-41.64H1795v-36.1h31.29Zm0-41.64H1795v-36.1h31.29Zm0-41.64H1795v-36.1h31.29Zm0-41.64H1795v-33.22h31.29Zm0-38.76H1795v-31.29h31.29Zm0-36.83H1795v-36.1h31.29Zm0-41.64H1795v-36.1h31.29Zm0-41.64H1795v-36.1h31.29Zm0-41.64H1795V1431h31.29Zm0-41.64H1795v-36.1h31.29Z"/></g></g><g class="cls-15"><polygon class="cls-56" points="1740.97 1926.38 1699.8 1926.38 1698 1838.87 1667.15 1511.76 1740.97 1926.38"/></g><path class="cls-57" d="M1349.51,2263.48s55.88-288.93,80.41-297.11,94,297.11,94,297.11h15s-53.15-299.83-106.3-318.91-95.4,318.91-95.4,318.91Z"/><path class="cls-58" d="M1577,2535.66c-.28-12.76-1.47-50.81-4.85-92.32v0c-2.69-32.82-6.73-67.79-12.79-94.15-11.83-51.67-2.41-89.77,0-108.15.67-4.9.83-8.39,0-10.41-1.3-3-15.09-4.13-33.42-4.24-.89,0-1.8,0-2.74,0-10.39-52.27-32.46-154.31-58.46-221.4l0,0c-13.12-34-27.3-59-41.45-64-22-7.9-42.14,45.43-58.2,110.61-12.35,50.21-22.26,107.47-28.74,149.19-1.33,8.59-2.52,16.51-3.54,23.6-.36,2.52-.72,4.95-1.06,7.25-3.68.11-6.61.28-8.47.44-13.18,1.17-8.47,87.34-2.74,144.29.89,9.14,1.85,17.53,2.74,24.7,4.76,37.83-2.33,80.74-3.65,111.17-.5,11.27-.2,20.83,1.77,27.78,7.28,25.83,255.71,6.89,255.71,0C1577.11,2539.29,1577.08,2537.85,1577,2535.66Zm-192.14-477.45c9.16-35.41,18.44-66.23,26.28-82.79,3.46-7.31,6.64-11.85,9.41-12.76,2.27-.75,5,1.19,7.92,5.34,11.74,16.5,28.16,67.73,43.5,122.75v0c13.9,49.75,26.91,102.67,34.81,135.76-12.46.27-25.62.83-37.63,1.44-24.29,1.19-44,2.63-44,2.63s-48.54,0-79.38.58c.41-2.11.88-4.29,1.33-6.56C1355.51,2183.89,1370.13,2115.11,1384.89,2058.21Z"/><g class="cls-59"><g class="cls-34"><path d="M1577.11,2539.89c0,6.9-248.42,25.84-255.73,0s8.4-87.14,1.91-138.93c-.9-7.17-1.85-15.56-2.75-24.72,21,22.38,52.28,47.7,90.3,54.87,72.23,13.63-46.34,8.18-60,27.26-13.31,18.64,91.72,89.29,226.15,77.3C1577.08,2537.85,1577.11,2539.29,1577.11,2539.89Z"/></g></g><g class="cls-34"><path d="M1535.91,2380.18c1-6.39,2.1-13.92,3.1-22.09,6.45-51,11.77-128-3.1-129-2.08-.17-5.37-.31-9.53-.42-.14-.75-.28-1.49-.41-2.27-9.36-51.67-31.9-163.26-61.2-221.43l0,0c-11.21-22.23-23.42-36.66-36.24-36.91a17.75,17.75,0,0,0-5.23.69,34.39,34.39,0,0,0-12.1,6.73c-16,13.07-31.79,41.81-46.08,76.06-12.35,50.21-22.26,107.47-28.74,149.19,12.63-40.92,31-97.82,48.54-142.46,16.31-41.59,31.9-72.54,41.45-70,11.49,3,29.05,49.39,45.66,102.56v0c15.62,49.95,30.37,105.85,38.49,137.56-12.38-.17-27.28-.31-41.31-.36-25.42-.14-48.07-.14-48.07-.14s-36.69-2.16-73.93-3.21c-4.79-.17-9.61-.28-14.37-.36-.36,2.52-.72,4.95-1.06,7.25-3.68.11-6.61.28-8.47.44-13.18,1.17-8.47,87.34-2.74,144.29.89,9.14,1.85,17.53,2.74,24.7,4.76,37.83-2.33,80.74-3.65,111.17,83.45,5.27,212.87,7.92,218.44-7.67C1546.29,2481.36,1528.6,2426.51,1535.91,2380.18Z"/></g><g class="cls-34"><path class="cls-60" d="M1497.53,2229.32s-62.94-258.41-90.57-265.72-105.91,265.72-105.91,265.72h-16.88s59.86-268.16,119.72-285.23,107.45,285.23,107.45,285.23Z"/></g><path class="cls-5" d="M1241.19,2476.53c0,6.17,279.79,23.11,288,0s-9.46-77.93-2.15-124.25c1-6.41,2.09-13.92,3.1-22.11,6.45-50.93,11.76-128-3.1-129-2.09-.15-5.37-.3-9.52-.39-13-72.29-53.9-274-103.12-260-47.46,13.53-94.92,184.93-112.54,255.33-22.17,0-39.2,1-40.74,3.81-1,1.8-.8,4.92-.06,9.31,2.79,16.45,13.38,50.51.06,96.73-6.81,23.57-11.39,54.85-14.4,84.2,0,0,0,0,0,0-3.8,37.12-5.16,71.13-5.46,82.57C1241.22,2474.71,1241.19,2476,1241.19,2476.53Zm260.45-276.1c-34.72-.51-89.4-.51-89.4-.51s-49.51-2.9-91.88-3.64c21.21-70.52,75.18-241.8,97.13-236C1439.75,1966.18,1484.91,2135,1501.64,2200.43Z"/><g class="cls-34"><path class="cls-61" d="M1261.08,2209.23c2.79,16.45,13.38,50.51.06,96.73-6.82,23.57-11.39,54.85-14.4,84.2,22.47-21.94,50-48.07,73.62-68.21C1353.82,2293.41,1300.22,2240.9,1261.08,2209.23Z"/></g><g class="cls-34"><path class="cls-61" d="M1527.06,2352.28c1-6.41,2.09-13.92,3.1-22.11-23.7,20-58.88,42.66-101.71,49.07-81.35,12.19,52.19,7.31,67.54,24.38,15,16.67-103.3,79.86-254.71,69.14-.06,1.95-.09,3.24-.09,3.77,0,6.17,279.79,23.11,288,0S1519.76,2398.6,1527.06,2352.28Z"/></g><path class="cls-23" d="M1445.73,1917l-78.58,9.39s-1,57.28,0,68.74,9.7,4.17,16.49,13.55,20.37,9.37,30.08,5.2,4.85,10.42,21.08,11.46,16.76-18.75,24-26a107.06,107.06,0,0,0,13.1-16.67s-1-17.71-4.85-28.12S1445.73,1917,1445.73,1917Z"/><g class="cls-62"><path class="cls-25" d="M1479.29,1966.44a3.17,3.17,0,0,0-2.33.88c-9.9,7.33-19.86,16-23.36,27.75-1.51,5.09-1.72,10.51-3.42,15.53s-5.51,9.92-10.78,10.54c-6.78.81-12.08-5.42-16.1-10.94s-9.59-11.61-16.31-10.42c-5,.89-10.56,5.68-14.39,2.28-2.32-2.06-2.43-6.4-5.4-7.3-2.09-.63-4.11,1-6,2-8.12,4.42-19.81-2.82-19.47-12.06l-3.29,33.37q11.35,8.82,23.17,17c13.92,9.7,29.61,19.11,46.54,17.94,14.15-1,27-9.51,35.73-20.72s13.67-24.87,17.1-38.63c2.08-8.33,3.59-17.39.2-25.27C1480.77,1967.56,1480.22,1966.62,1479.29,1966.44Z"/></g><path class="cls-9" d="M1529.69,1599.26c-20.36-164.59-68.21-223.06-68.21-223.06s-75,18.88-100,42.84-53.13,194.81-56.26,295.86,51,230.22,51,230.22l108.34-13.54-9.94-79.17,99.53-14.59S1550.06,1763.86,1529.69,1599.26Z"/><g class="cls-63"><g class="cls-34"><path class="cls-5" d="M1540.11,1364.89h-5.54v23.92h-31.29v-23.92h-5.54v23.92h-36.1v-23.92h-5.54v23.92H1420v-23.92h-5.54v23.92h-36.1v-23.92h-5.54v23.92h-36.1v-23.92h-5.54v23.92h-36.1v-23.92h-5.54v23.92h-37v5.54h37v36.1h-37V1436h37v36.1h-37v5.54h37v36.1h-37v5.53h37v36.11h-37v5.53h37V1597h-37v5.53h37v31.3h-37v5.53h37v33.23h-37v5.54h37v36.1h-37v5.54h37v36.1h-37v5.54h37v36.1h-37v5.54h37v36.1h-37v5.54h37v36.1h-37v5.53h37v31.3h-37v5.53h37v33.27h5.54v-33.27h36.1v33.27h5.54v-33.27h36.1v33.27h5.54v-33.27h36.1v33.27H1420v-33.27h36.1v33.27h5.54v-33.27h36.1v33.27h5.54v-33.27h31.29v33.27h5.54v-33.27h46v-5.53h-46v-31.3h46v-5.53h-46v-36.1h46v-5.54h-46v-36.1h46v-5.54h-46v-36.1h46v-5.54h-46v-36.1h46v-5.54h-46v-36.1h46v-5.54h-46v-33.23h46v-5.53h-46v-31.3h46V1597h-46V1560.9h46v-5.53h-46v-36.11h46v-5.53h-46v-36.1h46v-5.54h-46V1436h46v-5.54h-46v-36.1h46v-5.54h-46Zm-208.93,552.74h-36.1v-31.3h36.1Zm0-36.83h-36.1v-36.1h36.1Zm0-41.64h-36.1v-36.1h36.1Zm0-41.64h-36.1v-36.1h36.1Zm0-41.64h-36.1v-36.1h36.1Zm0-41.64h-36.1v-36.1h36.1Zm0-41.64h-36.1v-33.23h36.1Zm0-38.76h-36.1v-31.3h36.1Zm0-36.83h-36.1V1560.9h36.1Zm0-41.64h-36.1v-36.11h36.1Zm0-41.64h-36.1v-36.1h36.1Zm0-41.64h-36.1V1436h36.1Zm0-41.64h-36.1v-36.1h36.1Zm41.64,487.18h-36.1v-31.3h36.1Zm0-36.83h-36.1v-36.1h36.1Zm0-41.64h-36.1v-36.1h36.1Zm0-41.64h-36.1v-36.1h36.1Zm0-41.64h-36.1v-36.1h36.1Zm0-41.64h-36.1v-36.1h36.1Zm0-41.64h-36.1v-33.23h36.1Zm0-38.76h-36.1v-31.3h36.1Zm0-36.83h-36.1V1560.9h36.1Zm0-41.64h-36.1v-36.11h36.1Zm0-41.64h-36.1v-36.1h36.1Zm0-41.64h-36.1V1436h36.1Zm0-41.64h-36.1v-36.1h36.1Zm41.64,487.18h-36.1v-31.3h36.1Zm0-36.83h-36.1v-36.1h36.1Zm0-41.64h-36.1v-36.1h36.1Zm0-41.64h-36.1v-36.1h36.1Zm0-41.64h-36.1v-36.1h36.1Zm0-41.64h-36.1v-36.1h36.1Zm0-41.64h-36.1v-33.23h36.1Zm0-38.76h-36.1v-31.3h36.1Zm0-36.83h-36.1V1560.9h36.1Zm0-41.64h-36.1v-36.11h36.1Zm0-41.64h-36.1v-36.1h36.1Zm0-41.64h-36.1V1436h36.1Zm0-41.64h-36.1v-36.1h36.1Zm41.64,487.18H1420v-31.3h36.1Zm0-36.83H1420v-36.1h36.1Zm0-41.64H1420v-36.1h36.1Zm0-41.64H1420v-36.1h36.1Zm0-41.64H1420v-36.1h36.1Zm0-41.64H1420v-36.1h36.1Zm0-41.64H1420v-33.23h36.1Zm0-38.76H1420v-31.3h36.1Zm0-36.83H1420V1560.9h36.1Zm0-41.64H1420v-36.11h36.1Zm0-41.64H1420v-36.1h36.1Zm0-41.64H1420V1436h36.1Zm0-41.64H1420v-36.1h36.1Zm41.64,487.18h-36.1v-31.3h36.1Zm0-36.83h-36.1v-36.1h36.1Zm0-41.64h-36.1v-36.1h36.1Zm0-41.64h-36.1v-36.1h36.1Zm0-41.64h-36.1v-36.1h36.1Zm0-41.64h-36.1v-36.1h36.1Zm0-41.64h-36.1v-33.23h36.1Zm0-38.76h-36.1v-31.3h36.1Zm0-36.83h-36.1V1560.9h36.1Zm0-41.64h-36.1v-36.11h36.1Zm0-41.64h-36.1v-36.1h36.1Zm0-41.64h-36.1V1436h36.1Zm0-41.64h-36.1v-36.1h36.1Zm36.83,487.18h-31.29v-31.3h31.29Zm0-36.83h-31.29v-36.1h31.29Zm0-41.64h-31.29v-36.1h31.29Zm0-41.64h-31.29v-36.1h31.29Zm0-41.64h-31.29v-36.1h31.29Zm0-41.64h-31.29v-36.1h31.29Zm0-41.64h-31.29v-33.23h31.29Zm0-38.76h-31.29v-31.3h31.29Zm0-36.83h-31.29V1560.9h31.29Zm0-41.64h-31.29v-36.11h31.29Zm0-41.64h-31.29v-36.1h31.29Zm0-41.64h-31.29V1436h31.29Zm0-41.64h-31.29v-36.1h31.29Z"/></g><g class="cls-15"><path class="cls-64" d="M1429.67,1461.34c16.93,31.38,8.43,242,8.43,242l16.6,149.08s26.35,65.54,31.21,76.33l43.78-37.51-59-187.9S1480,1556.34,1429.67,1461.34Z"/></g></g><circle class="cls-65" cx="819.22" cy="2685.76" r="39.31" transform="translate(-472.56 192.62) rotate(-10.43)"/><path class="cls-5" d="M819.22,2659.08a26.68,26.68,0,1,0,26.68,26.68A26.67,26.67,0,0,0,819.22,2659.08Z"/><circle class="cls-65" cx="480.48" cy="2685.76" r="39.31" transform="translate(-2101.52 1804.04) rotate(-61)"/><path class="cls-5" d="M480.49,2659.08a26.68,26.68,0,1,0,26.67,26.68A26.67,26.67,0,0,0,480.49,2659.08Z"/><rect class="cls-66" x="546.3" y="1717.38" width="20.23" height="327.92"/><rect class="cls-66" x="720.19" y="1717.38" width="20.23" height="327.92"/><path class="cls-65" d="M709.59,2010.62H577.12a17.84,17.84,0,0,0,0,35.67H709.59a17.84,17.84,0,1,0,0-35.67Z"/><path class="cls-28" d="M736.42,1680.52H550.3a4,4,0,0,0-4,4v32.86H740.42v-32.86A4,4,0,0,0,736.42,1680.52Z"/><rect class="cls-28" x="392.72" y="2030.88" width="501.26" height="636.72" rx="47.07"/><rect class="cls-67" x="392.73" y="2030.88" width="175.51" height="636.72" rx="17"/><path class="cls-67" d="M607.56,2181.16v399.66c0,9.15,8.48,16.58,19,16.58V2164.58C616,2164.58,607.56,2172,607.56,2181.16Z"/><path class="cls-67" d="M713.39,2181.16v399.66c0,9.15,8.49,16.58,19,16.58V2164.58C721.88,2164.58,713.39,2172,713.39,2181.16Z"/><path class="cls-67" d="M819.22,2181.16v399.66c0,9.15,8.49,16.58,19,16.58V2164.58C827.71,2164.58,819.22,2172,819.22,2181.16Z"/><path class="cls-68" d="M628.62,2164.58a21.45,21.45,0,0,0-4.92.64c8.07,1.9,14,8.28,14,15.94v399.66c0,7.66-6,14-14,15.94a21.45,21.45,0,0,0,4.92.64c10.47,0,19-7.43,19-16.58V2181.16C647.57,2172,639.09,2164.58,628.62,2164.58Z"/><path class="cls-68" d="M732.34,2164.58a21.37,21.37,0,0,0-4.91.64c8.07,1.9,14,8.28,14,15.94v399.66c0,7.66-6,14-14,15.94a21.37,21.37,0,0,0,4.91.64c10.47,0,19-7.43,19-16.58V2181.16C751.3,2172,742.81,2164.58,732.34,2164.58Z"/><path class="cls-68" d="M838.18,2164.58a21.45,21.45,0,0,0-4.92.64c8.07,1.9,14,8.28,14,15.94v399.66c0,7.66-6,14-14,15.94a21.45,21.45,0,0,0,4.92.64c10.47,0,19-7.43,19-16.58V2181.16C857.13,2172,848.65,2164.58,838.18,2164.58Z"/><g class="cls-43"><path d="M846.91,2030.88H648.55c.94,99.52-5.29,199.67-46.25,289.41-8.66,18.94-18.91,37.69-21.59,58.34s4.37,44.31,22.76,54.11c14.42,7.72,32,5.29,47.93,9.16,46.54,11.33,62.74,70,59.23,117.79-2.61,35.81-11.14,73.08-7,107.91H846.91A47.06,47.06,0,0,0,894,2620.53V2078A47.07,47.07,0,0,0,846.91,2030.88Z"/></g><path class="cls-47" d="M974,2288.28H805.55L643.36,2394.7s21.83,67.54,93.8,43,88.46-33.51,136.5-18.8,76.7,21.5,119.67,9.91,99.09-22,89-43.67S974,2288.28,974,2288.28Z"/><path class="cls-25" d="M997.45,2694.15c-12.79-7.94-24.31-16.49-30.28-25.46-23.52-35.28,21.55-411.59,21.55-411.59l-190.1,13.7s31.4,272.65,42.93,388.4c2.85,28.81,4.49,47.92,4.11,50.65-2,13.7,121.51,39.19,188.16,31.34C1083.53,2735.37,1035.05,2717.52,997.45,2694.15Z"/><path class="cls-69" d="M997.45,2694.15c-38.45,25.2-116.8-12.82-155.9-35,2.85,28.81,4.49,47.92,4.11,50.65-2,13.7,121.51,39.19,188.16,31.34C1083.53,2735.37,1035.05,2717.52,997.45,2694.15Z"/><path class="cls-23" d="M921.05,2711.49c-12.79-7.94-24.32-16.49-30.28-25.46-23.52-35.28,21.55-411.59,21.55-411.59l-190.1,13.7s31.4,272.65,42.92,388.39c2.85,28.82,4.5,47.93,4.12,50.66-2,13.7,121.51,39.19,188.15,31.34C1007.13,2752.71,958.65,2734.86,921.05,2711.49Z"/><g class="cls-70"><path class="cls-25" d="M914.26,2213.23c-41.3-29-96.24-33.86-145.2-21.6a236.52,236.52,0,0,0-124.92,79.48c-14.4,17.7-26.56,38.68-27.11,61.5l54.11,82.82c19.92-6.88,41.78,1.92,59.7,13s35,24.85,55.63,29.21c27.47,5.81,55.35-6.24,80.21-19.3,40.47-21.24,81.84-49.27,96.43-92.59C979.21,2297.9,955.56,2242.24,914.26,2213.23Z"/><path class="cls-25" d="M974.59,2711.26c-13.3-2.77-27.05-1.65-40.63-1.36a333.6,333.6,0,0,1-190.88-55.64l-79.14,56.89c16.63,13,36,22,55.13,30.86,71.84,33.28,148.6,67.39,227.12,57.19,17.25-2.24,34.91-7,47.95-18.49s20.07-31.21,12.68-46.95C1001,2721.46,987.89,2714,974.59,2711.26Z"/></g><path class="cls-47" d="M921.05,2711.49c-38.46,25.2-116.81-12.82-155.91-35,2.85,28.82,4.5,47.93,4.12,50.66-2,13.7,121.51,39.19,188.15,31.34C1007.13,2752.71,958.65,2734.86,921.05,2711.49Z"/><path class="cls-21" d="M959.86,1758.13c-49.83-27.19-249.27,17.24-249.27,17.24L643.36,2394.7s65.33-26.61,125.78,20.47,97.3-43,193.49-43,178.19,7.32,67.67,42.82c96.19-17.72,42.84-38.73,42.84-71.47S980.33,1823.63,959.86,1758.13Z"/><g class="cls-71"><g class="cls-43"><path d="M840.23,2446.46c-60.06-14-47.21-399.89-43.11-495.33-2.61,44.63-11.72,154-41.89,272.55-39.38,154.75-88.94,224.85-88.94,224.85S908.79,2462.44,840.23,2446.46Z"/><path d="M797.12,1951.13c.8-13.61,1-21.2,1-21.2S797.7,1937.62,797.12,1951.13Z"/></g><g class="cls-43"><polygon points="1030.3 2415.01 1055 2476.1 1169.09 2380.99 978.6 1807.73 1030.3 2415.01"/></g><g class="cls-34"><path class="cls-5" d="M793.55,1807.73A19.27,19.27,0,1,0,812.82,1827,19.26,19.26,0,0,0,793.55,1807.73Z"/><circle class="cls-5" cx="918.06" cy="1899.02" r="29.72"/><path class="cls-5" d="M690.88,1785.64a29.72,29.72,0,1,0,29.72,29.72A29.71,29.71,0,0,0,690.88,1785.64Z"/><path class="cls-5" d="M806.39,1932.45a12.84,12.84,0,1,0,12.83,12.83A12.83,12.83,0,0,0,806.39,1932.45Z"/><path class="cls-5" d="M910.4,1782.54A16.41,16.41,0,1,0,926.81,1799,16.41,16.41,0,0,0,910.4,1782.54Z"/><path class="cls-5" d="M669.7,1968a34.06,34.06,0,1,0,34.06,34.06A34.06,34.06,0,0,0,669.7,1968Z"/><circle class="cls-5" cx="722.09" cy="2165.7" r="18.33"/><circle class="cls-5" cx="855.55" cy="2105.48" r="37.03" transform="translate(-740.61 487.67) rotate(-22.5)"/><path class="cls-5" d="M894,2205.18a15.57,15.57,0,1,0,15.57,15.57A15.57,15.57,0,0,0,894,2205.18Z"/><circle class="cls-5" cx="1012.61" cy="2025.37" r="34.01"/><circle class="cls-5" cx="998.75" cy="2255.38" r="20.15"/><circle class="cls-5" cx="681.77" cy="2312.85" r="38.41" transform="translate(-425.08 170.66) rotate(-10.9)"/><path class="cls-5" d="M790.34,2330.17a16.05,16.05,0,1,0,16,16A16,16,0,0,0,790.34,2330.17Z"/><path class="cls-5" d="M1073.1,2312.85a33.23,33.23,0,1,0,33.22,33.23A33.23,33.23,0,0,0,1073.1,2312.85Z"/><circle class="cls-5" cx="926.81" cy="2376.24" r="23.2"/></g></g><path class="cls-33" d="M939.86,1257.68c-1.17-32.57-9.37-75.23-82-94s-101.93,31.63-101.93,31.63c-83.19,15.23-35.15,120.68-48,140.37s-50.38,21.62-50.38,69.13c0,36.1,56.24,28.72,56.24,28.72s-12.89-10.92-4.69-34.93c0,28.71,23.44,34.93,23.44,34.93s88.38,7.65,147.84.62,71.06-18.19,60.91-80.81C934.56,1312.24,941,1290.25,939.86,1257.68Z"/><g class="cls-72"><path class="cls-73" d="M926.07,1344.35a112,112,0,0,1-9-74c3-13.31,8.33-27.8,2.07-39.92-2.86-5.52-7.78-9.64-12.74-13.38-15.08-11.35-32.19-20.68-50.84-23.6s-39,1.32-52.85,14.16a43,43,0,0,1,11.66-31.25c-11.54,8.79-29.13,11.08-35.13,24.28-5.43,12,2.17,25.52,9.5,36.43a115.3,115.3,0,0,1-28.44-20.34s-16.22.78-20.24,12.39-3.08,24.47.24,36.3c4.47,15.95,13.2,31,13.69,47.57a49.84,49.84,0,0,1-20,40.9c-13.74,10.09-32.45,12.84-44.14,25.24-11.34,12-12.88,32-3.93,45.89s27.3,20.81,43.33,16.74c-8.6-6.73-16-15.54-18.88-26.08s-.49-22.89,7.69-30.12c-9,13.11-6.62,33.38,7.52,46.32,11.6,10.62,16.09,28,30.26,34.77,8.2,3.94,17.3,5.58,26.33,6.7a261.48,261.48,0,0,0,146.63-24.69c7.14-3.51,14.31-7.5,19.34-13.67,10.52-12.86,9.09-32,2.6-47.33S933.51,1359.21,926.07,1344.35Z"/></g><path class="cls-23" d="M923.79,1296.61c0-43.67-21.5-69.2-21.5-69.2-13.44,20.83-39.28,15.91-41.9,24.57a123.45,123.45,0,0,1-48.38,66.4l-.9.62c-.57-.6-1.14-1.2-1.75-1.77-13.59-12.64-33.25-13.58-43.92-2.11s-8.29,31,5.29,43.64a36.35,36.35,0,0,0,25.31,10.1l-3.26,55.4h86.67a324.07,324.07,0,0,1-8.74-41.65c75.25,8.06,58.45-71.22,58.45-71.22S932.52,1307.36,923.79,1296.61Z"/><g class="cls-74"><path class="cls-25" d="M920.69,1190.71c-6.08-4.71-13.68-7.12-21.31-8-22.9-2.8-46,7.2-63.38,22.32s-30,35-41.43,55l13,59.39a115.47,115.47,0,0,0,48.55-44.77c2.94-5,5.62-10.28,10.12-13.88,5-4,11.66-5.31,17.85-7.14a91.85,91.85,0,0,0,31.72-16.71c8.25-6.69,15.74-15.93,15.51-26.56C931.14,1202.64,926.76,1195.42,920.69,1190.71Z"/><path class="cls-25" d="M852.75,1376c-6.64-3.18-13.46-6.58-20.82-6.9a4.53,4.53,0,0,0-2.63.46c-1.94,1.22-1.3,4.16-.38,6.25a144,144,0,0,0,26,39.79c4.84,5.25,10.24,10.25,16.84,13A29.73,29.73,0,0,0,912,1407.88l-21.46-22C877.44,1387.08,864.65,1381.71,852.75,1376Z"/></g><path class="cls-25" d="M800.86,1334.21a16,16,0,0,0-6.36-6.44,12,12,0,0,0-8.65-1.24,20,20,0,0,1,6.91,3.85,20.53,20.53,0,0,1,4.62,5.78,43,43,0,0,1,3,7.12c.33,1.28.76,2.57,1.17,3.88a37.2,37.2,0,0,0,1.23,4,33.37,33.37,0,0,0,.72-4.25,41.58,41.58,0,0,0,0-4.32A22.24,22.24,0,0,0,800.86,1334.21Z"/><path class="cls-25" d="M797.25,1335.82a10.07,10.07,0,0,0-1.19-.58,8.09,8.09,0,0,0-1.27-.48c-.45-.12-.9-.2-1.36-.3a7.48,7.48,0,0,0-1.43-.09,7.81,7.81,0,0,0-5.4,2.05,6.19,6.19,0,0,0-2.05,5,13.46,13.46,0,0,1,3.83-2.42,9.73,9.73,0,0,1,3.65-.64,17.25,17.25,0,0,1,2,.11l2.14.29c.73.17,1.5.26,2.3.39a15.31,15.31,0,0,0,2.55.28,12.64,12.64,0,0,0-1.66-2A15.42,15.42,0,0,0,797.25,1335.82Z"/><path class="cls-40" d="M893.69,1282.92c-3.42.6-5.44,5.43-4.49,10.79s4.49,9.2,7.92,8.6,5.43-5.44,4.49-10.79S897.12,1282.31,893.69,1282.92Z"/><path class="cls-40" d="M886.26,1258.77a22.39,22.39,0,0,0-7.58.9,30.26,30.26,0,0,0-6.56,3,40.65,40.65,0,0,0-5.54,4.22,42.58,42.58,0,0,0-4.75,5,1.33,1.33,0,0,0,2,1.78l0,0a40.83,40.83,0,0,1,4.94-4,36.49,36.49,0,0,1,5.43-3.13,25.83,25.83,0,0,1,5.72-1.82,16.63,16.63,0,0,1,5.55.06l.12,0,.35,0a3,3,0,0,0,.32-6.09Z"/><path class="cls-41" d="M853.9,1304.15c-8.56,2.11-13.56,11.7-11.16,21.42s11.29,15.88,19.85,13.76,13.56-11.7,11.16-21.42S862.46,1302,853.9,1304.15Z"/><path class="cls-40" d="M914.33,1337c-6,2.34-20,2.4-21.33,2.4h-.12a2,2,0,0,0,0,4h.24c2.07,0,16.07-.09,22.67-2.68a2,2,0,1,0-1.45-3.72Z"/><path class="cls-58" d="M930.76,1463.24c-7.27-7-19.73-21.44-31.54-27-2.19-5.16-5.58-9-9.12-17.37-16.46-39-87.58-29.24-97.32-28.22s-16.45,20.16-16.45,20.16-32.74,17-56.77,78.53-13.51,318.36-13.51,318.36H971.84v-31.42a8.73,8.73,0,0,1,8.17-8.69c8.72-.64,23-4.81,35.38-23C1034.91,1716.13,968.15,1499.28,930.76,1463.24Z"/><g class="cls-75"><path d="M904,1728.14c-35.17-45.83-77.94-126.68-79.26-129.2l57.54,208.79h89.59v-40.55S939.71,1774.69,904,1728.14Z"/></g><path class="cls-5" d="M874.35,1744.66c-52.18-66.08-7.2-302.92,24.87-308.39,1.67-17.37-9.12-17.37-9.12-17.37s-51.84,11.91-65.39,159.07-100.64,399.45-9,414.46,210.23,42,211.74-9-18.06-231.15-18.06-231.15S926.53,1810.73,874.35,1744.66Z"/><g class="cls-76"><path class="cls-77" d="M1057.94,1579.72a259.63,259.63,0,0,1-28.82-70.73c-5.66-23.24-8.17-47.45-17.48-69.48s-27.48-42.38-51.18-45.64L923.21,1407c-20.81-1.42-36.13,19-44.64,38-18.33,41.09-24.82,86.36-29.87,131.06q-6.27,55.48-10,111.22c-1.68,25-2.62,51.72,9.77,73.56,16.68,29.41,56.84,33.64,90.6,35.56s63.15-67.7,96.73-63.67c14.36,1.72,29.7,77,44,75,30.38-4.45,52.33-34.57,55.39-65.12s-9.14-60.73-25.28-86.85S1073.58,1606.15,1057.94,1579.72Z"/><path class="cls-77" d="M1036.75,1854.55c-3.87,0-7.42,2-10.75,4-51.44,30.5-102,68.07-161.51,74.44-23.09,2.48-47.63-.34-67-13.09s-32.29-37-27.06-59.6L708.56,2013.7c8.84,22.8,36.23,31.22,60.24,35.89,74.44,14.45,151.12,20.6,226.24,10.25,25.68-3.54,53.25-10.25,69.42-30.51,10.47-13.12,14.6-30.17,16.87-46.8,5.83-42.8-.55-90.62-31.35-120.91C1046.32,1858,1041.89,1854.54,1036.75,1854.55Z"/></g></g></svg>